<svg transform="scale(1)" version="1.1" id="Layer_1" xmlns="http://www.w3.org/2000/svg" xmlns:xlink="http://www.w3.org/1999/xlink" x="0px" y="0px" viewBox="0 0 500 500" xml:space="preserve" class="show_show__wrapper__graphic__5Waiy "><title>React</title><style type="text/css">
	.st0{fill:#FFFFFF;}
	.st1{fill:#D1D3D4;}
	.st2{fill:none;}
	.st3{fill:#231F20;}
	.st4{fill:#43D9AD;}
</style><g id="books"><rect class="st0" x="53.8" y="306.7" width="76.4" height="12.7"></rect><path class="st1" d="M130.2,320.1H53.8c-0.4,0-0.7-0.3-0.7-0.7l0,0v-12.7c0-0.4,0.3-0.7,0.7-0.7c0,0,0,0,0,0h76.4
		c0.4,0,0.7,0.3,0.7,0.7l0,0v12.7C130.9,319.8,130.6,320.1,130.2,320.1z M54.5,318.7h75v-11.3h-75L54.5,318.7z"></path><rect class="st1" x="86.3" y="306.7" width="44" height="12.7"></rect><path class="st1" d="M130.2,320.1h-44c-0.4,0-0.7-0.3-0.7-0.7l0,0v-12.7c0-0.4,0.3-0.7,0.7-0.7h0h44c0.4,0,0.7,0.3,0.7,0.7l0,0
		v12.7C130.9,319.8,130.6,320.1,130.2,320.1z M87,318.7h42.6v-11.3H87V318.7z"></path><rect class="st0" x="44.3" y="293.6" width="76.4" height="12.7"></rect><path class="st1" d="M120.7,306.9H44.3c-0.4,0-0.7-0.3-0.7-0.7l0,0v-12.7c0-0.4,0.3-0.7,0.7-0.7c0,0,0,0,0,0h76.4
		c0.4,0,0.7,0.3,0.7,0.7l0,0v12.7C121.4,306.6,121.1,306.9,120.7,306.9L120.7,306.9z M45,305.5h75v-11.3H45V305.5z"></path><rect class="st1" x="76.7" y="293.6" width="44" height="12.7"></rect><path class="st1" d="M120.7,306.9h-44c-0.4,0-0.7-0.3-0.7-0.7l0,0v-12.7c0-0.4,0.3-0.7,0.7-0.7h0h44c0.4,0,0.7,0.3,0.7,0.7l0,0
		v12.7C121.4,306.6,121.1,306.9,120.7,306.9L120.7,306.9z M77.4,305.5H120v-11.3H77.4L77.4,305.5z"></path><rect class="st0" x="53.8" y="280.4" width="76.4" height="12.7"></rect><path class="st1" d="M130.2,293.8H53.8c-0.4,0-0.7-0.3-0.7-0.7l0,0v-12.7c0-0.4,0.3-0.7,0.7-0.7c0,0,0,0,0,0h76.4
		c0.4,0,0.7,0.3,0.7,0.7v12.7C130.9,293.5,130.6,293.8,130.2,293.8z M54.5,292.4h75v-11.3h-75L54.5,292.4z"></path><rect class="st1" x="86.3" y="280.4" width="44" height="12.7"></rect><path class="st1" d="M130.2,293.8h-44c-0.4,0-0.7-0.3-0.7-0.7l0,0v-12.7c0-0.4,0.3-0.7,0.7-0.7h0h44c0.4,0,0.7,0.3,0.7,0.7v12.7
		C130.9,293.5,130.6,293.8,130.2,293.8z M87,292.4h42.6v-11.3H87V292.4z"></path><line class="st2" x1="120.7" y1="293.6" x2="86.3" y2="293.6"></line><path class="st3" d="M120.7,294.3H86.3c-0.4,0-0.7-0.3-0.7-0.7c0-0.4,0.3-0.7,0.7-0.7h34.4c0.4,0,0.7,0.3,0.7,0.7
		C121.4,293.9,121.1,294.3,120.7,294.3C120.7,294.3,120.7,294.3,120.7,294.3z"></path><line class="st2" x1="120.7" y1="306.2" x2="76.7" y2="306.2"></line><path class="st3" d="M120.7,306.9h-44c-0.4,0-0.7-0.3-0.7-0.7c0-0.4,0.3-0.7,0.7-0.7h44c0.4,0,0.7,0.3,0.7,0.7
		C121.4,306.6,121.1,306.9,120.7,306.9C120.7,306.9,120.7,306.9,120.7,306.9z"></path></g><g id="Desk"><rect class="st3" x="209" y="334.9" width="105.4" height="49.6"></rect><path class="st3" d="M314.4,385.3H209c-0.4,0-0.7-0.3-0.7-0.7l0,0v-49.6c0-0.4,0.3-0.7,0.7-0.7c0,0,0,0,0,0h105.4
		c0.4,0,0.7,0.3,0.7,0.7v0v49.6C315.1,385,314.8,385.3,314.4,385.3L314.4,385.3z M209.7,383.9h104v-48.2h-104V383.9z"></path><path class="st0" d="M343.3,334.9H42.7c-2.7,0-4.9-2.2-4.9-4.9v-5.6c0-2.7,2.2-4.9,4.9-4.9h300.7c2.7,0,4.9,2.2,4.9,4.9v5.6
		C348.2,332.7,346,334.9,343.3,334.9z"></path><path class="st3" d="M343.3,335.6H42.7c-3.1,0-5.6-2.5-5.6-5.6v-5.6c0-3.1,2.5-5.6,5.6-5.6h300.6c3.1,0,5.6,2.5,5.6,5.6v5.6
		C348.9,333.1,346.4,335.6,343.3,335.6z M42.7,320.3c-2.3,0-4.2,1.9-4.2,4.2v5.6c0,2.3,1.9,4.2,4.2,4.2h300.6c2.3,0,4.2-1.9,4.2-4.2
		v-5.6c0-2.3-1.9-4.2-4.2-4.2H42.7z"></path><path class="st0" d="M215.6,334.9H41.2c-1.9,0-3.4-1.5-3.4-3.4V323c0-1.9,1.5-3.4,3.4-3.4h174.4c1.9,0,3.4,1.5,3.4,3.4v8.5
		C219,333.4,217.5,334.9,215.6,334.9z"></path><path class="st3" d="M215.6,335.6H41.2c-2.3,0-4.1-1.8-4.1-4.1V323c0-2.3,1.8-4.1,4.1-4.1h174.4c2.3,0,4.1,1.8,4.1,4.1v8.5
		C219.7,333.8,217.8,335.6,215.6,335.6z M41.2,320.3c-1.5,0-2.7,1.2-2.7,2.7c0,0,0,0,0,0v8.5c0,1.5,1.2,2.7,2.7,2.7c0,0,0,0,0,0
		h174.4c1.5,0,2.7-1.2,2.7-2.7V323c0-1.5-1.2-2.7-2.7-2.7L41.2,320.3z"></path><path class="st0" d="M301.8,340.9c0,0-47,11.9-47,43.6h124.3c0,0,19.8-19.1,14.9-48.4C343.9,337.9,301.8,340.9,301.8,340.9z"></path><path class="st3" d="M379.1,385.3H254.8c-0.4,0-0.7-0.3-0.7-0.7c0-32,47.1-44.2,47.6-44.3h0.1c0.4,0,42.7-3.1,92.2-4.8
		c0.4,0,0.7,0.2,0.7,0.6c4.9,29.3-14.9,48.8-15.1,49C379.5,385.2,379.3,385.3,379.1,385.3z M255.5,383.9h123.3
		c2-2.1,18.7-20.3,14.6-47c-48.4,1.7-89.6,4.6-91.4,4.8C300.1,342.1,256.2,354,255.5,383.9z"></path><rect class="st0" x="46.7" y="334.9" width="162.1" height="49.6"></rect><path class="st3" d="M208.9,385.3H46.7c-0.4,0-0.7-0.3-0.7-0.7l0,0v-49.6c0-0.4,0.3-0.7,0.7-0.7c0,0,0,0,0,0h162.1
		c0.4,0,0.7,0.3,0.7,0.7l0,0v49.6C209.5,385,209.2,385.3,208.9,385.3z M47.4,383.9h160.7v-48.2H47.4L47.4,383.9z"></path><rect class="st0" x="208.8" y="334.9" width="12.5" height="49.6"></rect><path class="st3" d="M221.4,385.3h-12.5c-0.4,0-0.7-0.3-0.7-0.7l0,0v-49.6c0-0.4,0.3-0.7,0.7-0.7c0,0,0,0,0,0h12.5
		c0.4,0,0.7,0.3,0.7,0.7l0,0v49.6C222.1,385,221.8,385.3,221.4,385.3C221.4,385.3,221.4,385.3,221.4,385.3z M209.6,383.9h11.1v-48.2
		h-11.1V383.9z"></path></g><g id="Monitor"><path class="st0" d="M191.2,255.3c0,0-4.2,43.5,5.2,49.4c8.7,5.5,18.4,3.9,23.8,3.9s8.4,3.5,9.2,6.1l1.4,4.7h-67.2
		c0,0-7.9-4.9-12.4-12.9s-1.7-49.2-1.7-49.2L191.2,255.3z"></path><path class="st3" d="M230.7,320.1h-67.2c-0.1,0-0.3,0-0.4-0.1c-5.1-3.4-9.5-7.9-12.7-13.1c-4.6-8-1.9-47.9-1.8-49.6
		c0-0.4,0.3-0.6,0.7-0.6l41.8-2c0.2,0,0.4,0.1,0.5,0.2c0.1,0.1,0.2,0.3,0.2,0.6c0,0.1-1,11-0.9,22.4c0.1,14.9,2.1,24,5.8,26.3
		c7.1,4.4,14.7,4.1,20.3,3.9c1.1,0,2.1-0.1,3.1-0.1c4.4-0.2,8.4,2.5,9.9,6.6l1.4,4.7c0.1,0.2,0,0.4-0.1,0.6
		C231.1,320,230.9,320.1,230.7,320.1z M163.7,318.7h66l-1.2-3.8c-0.8-2.7-3.8-5.6-8.5-5.6c-0.9,0-1.9,0-3,0.1
		c-5.5,0.2-13.7,0.6-21.1-4.1c-9.1-5.7-6.1-43-5.6-49.2l-40.3,2c-0.3,5.2-2.4,41,1.7,48.2S162.6,318,163.7,318.7L163.7,318.7z"></path><path class="st3" d="M152.6,296.7c0,10.7,3.2,14,7.5,14H177c2.4,0,4.5,1.5,5.3,3.7l1.9,5.1h-26c-6.6,0-11.4-10.1-11.6-20.8
		s0-41.2,0-41.2h5.8C152.4,257.4,152.6,285.9,152.6,296.7z"></path><path class="st3" d="M184.1,320.1h-26c-7.4,0-12.1-10.9-12.3-21.5s0-41,0-41.3c0-0.4,0.3-0.7,0.7-0.7h5.8c0.4,0,0.7,0.3,0.7,0.7
		c0,0.3,0.2,28.7,0.2,39.3c0,13.2,5.1,13.2,6.8,13.2H177c2.7,0,5.1,1.7,6,4.2l1.9,5.1c0.1,0.4-0.1,0.8-0.4,0.9
		C184.4,320.1,184.3,320.1,184.1,320.1L184.1,320.1z M147.3,258c0,4.6-0.2,30.8,0,40.5c0.2,11.1,5.1,20.1,10.9,20.1h25l-1.5-4.1
		c-0.7-2-2.6-3.2-4.7-3.3h-16.9c-5.5,0-8.2-4.8-8.2-14.6c0-9.7-0.2-34.2-0.2-38.6H147.3z"></path><path class="st3" d="M243.3,136.9l10.2,116.2c0.5,5.7-3.6,10.4-9.1,10.4H105.8c-5.5,0-10.4-4.7-10.9-10.4L84.7,136.9
		c-0.5-5.8,3.6-10.4,9.1-10.4h138.6C237.9,126.5,242.8,131.2,243.3,136.9z"></path><path class="st3" d="M244.4,264.2H105.8c-5.9,0-11.1-5-11.6-11L84,137c-0.3-2.9,0.6-5.8,2.6-8c1.8-2,4.5-3.1,7.2-3.1h138.6
		c5.9,0,11.1,5,11.6,11l10.2,116.2c0.3,2.9-0.7,5.8-2.6,8C249.7,263.1,247.1,264.3,244.4,264.2z M93.8,127.2c-2.3,0-4.6,0.9-6.2,2.7
		c-1.7,1.9-2.5,4.5-2.2,7l10.2,116.2c0.5,5.4,5,9.8,10.2,9.8h138.6c2.3,0,4.6-0.9,6.1-2.7c1.7-1.9,2.5-4.5,2.2-7L242.6,137l0,0
		c-0.5-5.4-4.8-9.6-10.2-9.8L93.8,127.2z"></path><path class="st0" d="M243.8,136.5l9.7,111c0.5,5.5-3.4,9.9-8.7,9.9H112.5c-5.3,0-9.9-4.5-10.4-9.9l-9.7-111
		c-0.5-5.5,3.4-9.9,8.7-9.9h132.3C238.8,126.7,243.3,131,243.8,136.5z"></path><path class="st3" d="M244.8,258H112.5c-5.6,0-10.6-4.7-11.1-10.6l-9.7-111c-0.3-2.8,0.6-5.6,2.5-7.7c1.8-1.9,4.3-3,6.9-3h132.3
		c5.6,0,10.6,4.7,11.1,10.6l9.7,111c0.3,2.8-0.6,5.6-2.5,7.7C249.9,257,247.4,258.1,244.8,258z M101,127.2c-2.2,0-4.3,0.9-5.8,2.5
		c-1.6,1.8-2.4,4.2-2.2,6.6l9.7,111c0.4,5.1,4.6,9.1,9.7,9.3h132.3c2.2,0,4.3-0.9,5.9-2.5c1.6-1.8,2.4-4.2,2.1-6.6l-9.7-111l0,0
		c-0.4-5.1-4.6-9.1-9.7-9.3L101,127.2z"></path><path class="st0" d="M251.8,228.8l1.6,18.6c0.5,5.5-3.4,9.9-8.7,9.9H112.5c-5.3,0-9.9-4.5-10.4-9.9l-1.6-18.6L251.8,228.8z"></path><path class="st3" d="M244.8,258H112.5c-5.6,0-10.6-4.7-11.1-10.6l-1.6-18.6c0-0.2,0-0.4,0.2-0.5c0.1-0.1,0.3-0.2,0.5-0.2h151.4
		c0.4,0,0.7,0.3,0.7,0.6l1.6,18.6c0.3,2.8-0.6,5.6-2.5,7.7C249.9,257,247.4,258.1,244.8,258z M101.2,229.5l1.6,17.9
		c0.4,5.1,4.6,9.1,9.7,9.3h132.3c2.2,0,4.3-0.9,5.9-2.5c1.6-1.8,2.4-4.2,2.1-6.6l-1.6-18L101.2,229.5z"></path><ellipse class="st0" transform="matrix(0.8307 -0.5567 0.5567 0.8307 -105.3006 139.8993)" cx="177.4" cy="243.1" rx="6" ry="6.6"></ellipse><path class="st3" d="M177.9,250.2c-3.9-0.1-7.1-3.2-7.4-7.1c-0.2-1.9,0.4-3.8,1.7-5.2c1.2-1.3,2.9-2,4.6-2c3.9,0.1,7.1,3.2,7.4,7.1
		l0,0c0.2,1.9-0.4,3.8-1.7,5.2C181.4,249.5,179.7,250.2,177.9,250.2z M176.8,237.3c-1.4,0-2.7,0.5-3.6,1.6c-1,1.1-1.5,2.6-1.3,4.1
		c0.3,3.2,2.8,5.6,6,5.8c1.4,0,2.7-0.6,3.6-1.6c1-1.1,1.5-2.6,1.3-4.1l0,0C182.6,240,180,237.5,176.8,237.3z"></path><path class="st1" d="M113,154.9c-0.4,0-0.7-0.3-0.7-0.7c0-0.4,0.3-0.7,0.7-0.7h14.3l0,0c0.4,0,0.7,0.3,0.7,0.7
		c0,0.4-0.3,0.7-0.7,0.7H113L113,154.9z"></path><path class="st4" d="M129.3,154.8c-0.4,0-0.7-0.3-0.7-0.7c0-0.4,0.3-0.7,0.7-0.7c0,0,0,0,0,0l42.4-0.1l0,0c0.4,0,0.7,0.3,0.7,0.7
		c0,0.4-0.3,0.7-0.7,0.7L129.3,154.8z"></path><path class="st1" d="M109.7,160.3c-0.4,0-0.7-0.3-0.7-0.7c0-0.4,0.3-0.7,0.7-0.7h14.3l0,0c0.4,0,0.7,0.3,0.7,0.7
		c0,0.4-0.3,0.7-0.7,0.7c0,0,0,0,0,0H109.7L109.7,160.3z"></path><path class="st4" d="M126.9,160.3c-0.4,0-0.7-0.3-0.7-0.7c0-0.4,0.3-0.7,0.7-0.7h23l0,0c0.4,0,0.7,0.3,0.7,0.7c0,0,0,0,0,0
		c0,0.4-0.3,0.7-0.7,0.7c0,0,0,0,0,0L126.9,160.3L126.9,160.3z"></path><path class="st4" d="M158.7,160.2c-0.4,0-0.7-0.3-0.7-0.7c0-0.4,0.3-0.7,0.7-0.7c0,0,0,0,0,0l23-0.1l0,0c0.4,0,0.7,0.3,0.7,0.7
		c0,0.4-0.3,0.7-0.7,0.7L158.7,160.2L158.7,160.2z"></path><path class="st1" d="M110.1,165.8c-0.4,0-0.7-0.3-0.7-0.7c0-0.4,0.3-0.7,0.7-0.7h14.3l0,0c0.4,0,0.7,0.3,0.7,0.7c0,0,0,0,0,0
		c0,0.4-0.3,0.7-0.7,0.7c0,0,0,0,0,0L110.1,165.8L110.1,165.8z"></path><path class="st4" d="M130.2,165.8c-0.4,0-0.7-0.3-0.7-0.7c0,0,0,0,0,0c0-0.4,0.3-0.7,0.7-0.7h20.1l0,0c0.4,0,0.7,0.3,0.7,0.7
		c0,0.4-0.3,0.7-0.7,0.7c0,0,0,0,0,0L130.2,165.8L130.2,165.8z"></path><path class="st1" d="M153.7,165.7c-0.4,0-0.7-0.3-0.7-0.7c0-0.4,0.3-0.7,0.7-0.7h8.2l0,0c0.4,0,0.7,0.3,0.7,0.7
		c0,0.4-0.3,0.7-0.7,0.7c0,0,0,0,0,0H153.7z"></path><path class="st1" d="M110.6,171.3c-0.4,0-0.7-0.3-0.7-0.7c0-0.4,0.3-0.7,0.7-0.7h14.3l0,0c0.4,0,0.7,0.3,0.7,0.7
		c0,0.4-0.3,0.7-0.7,0.7H110.6z"></path><path class="st4" d="M128.7,171.2c-0.4,0-0.7-0.3-0.7-0.7c0-0.4,0.3-0.7,0.7-0.7l29.3-0.1l0,0c0.4,0,0.7,0.3,0.7,0.7
		c0,0.4-0.3,0.7-0.7,0.7L128.7,171.2z"></path><path class="st4" d="M161.4,171.2c-0.4,0-0.7-0.3-0.7-0.7c0-0.4,0.3-0.7,0.7-0.7h14.3l0,0c0.4,0,0.7,0.3,0.7,0.7
		c0,0.4-0.3,0.7-0.7,0.7H161.4z"></path><path class="st1" d="M107.7,176.7c-0.4,0-0.7-0.3-0.7-0.7c0-0.4,0.3-0.7,0.7-0.7c0,0,0,0,0,0h7.6l0,0c0.4,0,0.7,0.3,0.7,0.7
		c0,0.4-0.3,0.7-0.7,0.7H107.7L107.7,176.7z"></path><path class="st4" d="M121.5,176.7c-0.4,0-0.7-0.3-0.7-0.7c0-0.4,0.3-0.7,0.7-0.7c0,0,0,0,0,0l33.1-0.1l0,0c0.4,0,0.7,0.3,0.7,0.7
		c0,0.4-0.3,0.7-0.7,0.7c0,0,0,0,0,0L121.5,176.7z"></path><path class="st1" d="M108.2,182.2c-0.4,0-0.7-0.3-0.7-0.7c0-0.4,0.3-0.7,0.7-0.7c0,0,0,0,0,0h14.3l0,0c0.4,0,0.7,0.3,0.7,0.7
		c0,0.4-0.3,0.7-0.7,0.7c0,0,0,0,0,0C122.4,182.2,108.2,182.2,108.2,182.2z"></path><path class="st1" d="M110.7,187.7c-0.4,0-0.7-0.3-0.7-0.7c0-0.4,0.3-0.7,0.7-0.7l28.5-0.1l0,0c0.4,0,0.7,0.3,0.7,0.7
		c0,0.4-0.3,0.7-0.7,0.7c0,0,0,0,0,0L110.7,187.7L110.7,187.7z"></path><path class="st4" d="M144,187.6c-0.4,0-0.7-0.3-0.7-0.7c0-0.4,0.3-0.7,0.7-0.7h19.8c0.4,0,0.7,0.3,0.7,0.7c0,0.4-0.3,0.7-0.7,0.7
		H144z"></path><path class="st4" d="M166.6,187.6c-0.4,0-0.7-0.3-0.7-0.7c0-0.4,0.3-0.7,0.7-0.7c0,0,0,0,0,0h24.5l0,0c0.4,0,0.7,0.3,0.7,0.7
		c0,0,0,0,0,0c0,0.4-0.3,0.7-0.7,0.7c0,0,0,0,0,0L166.6,187.6L166.6,187.6z"></path><path class="st1" d="M112.4,193.1c-0.4,0-0.7-0.3-0.7-0.7c0-0.4,0.3-0.7,0.7-0.7l41.5-0.1l0,0c0.4,0,0.7,0.3,0.7,0.7
		c0,0.4-0.3,0.7-0.7,0.7L112.4,193.1z"></path><path class="st4" d="M156.8,193c-0.4,0-0.7-0.3-0.7-0.7c0,0,0,0,0,0c0-0.4,0.3-0.7,0.7-0.7c0,0,0,0,0,0h18.7l0,0
		c0.4,0,0.7,0.3,0.7,0.7c0,0.4-0.3,0.7-0.7,0.7L156.8,193L156.8,193z"></path><path class="st4" d="M178.7,193c-0.4,0-0.7-0.3-0.7-0.7c0-0.4,0.3-0.7,0.7-0.7l55.6-0.1l0,0c0.4,0,0.7,0.3,0.7,0.7
		c0,0.4-0.3,0.7-0.7,0.7L178.7,193z"></path><path class="st1" d="M112.7,198.6c-0.4,0-0.7-0.3-0.7-0.7c0-0.4,0.3-0.7,0.7-0.7h19.6l0,0c0.4,0,0.7,0.3,0.7,0.7
		c0,0.4-0.3,0.7-0.7,0.7c0,0,0,0,0,0H112.7z"></path><path class="st4" d="M136.3,198.6c-0.4,0-0.7-0.3-0.7-0.7c0,0,0,0,0,0c0-0.4,0.3-0.7,0.7-0.7h14.5l0,0c0.4,0,0.7,0.3,0.7,0.7
		c0,0.4-0.3,0.7-0.7,0.7H136.3L136.3,198.6z"></path><path class="st4" d="M154.6,198.5c-0.4,0-0.7-0.3-0.7-0.7c0-0.4,0.3-0.7,0.7-0.7h14.5l0,0c0.4,0,0.7,0.3,0.7,0.7
		c0,0.4-0.3,0.7-0.7,0.7H154.6z"></path><path class="st1" d="M113.2,204.1c-0.4,0-0.7-0.3-0.7-0.7c0-0.4,0.3-0.7,0.7-0.7l34.7-0.1l0,0c0.4,0,0.7,0.3,0.7,0.7
		c0,0.4-0.3,0.7-0.7,0.7L113.2,204.1L113.2,204.1z"></path><path class="st4" d="M152.2,204c-0.4,0-0.7-0.3-0.7-0.7c0-0.4,0.3-0.7,0.7-0.7h17.4l0,0c0.4,0,0.7,0.3,0.7,0.7
		c0,0.4-0.3,0.7-0.7,0.7c0,0,0,0,0,0H152.2z"></path><path class="st1" d="M173.8,204c-0.4,0-0.7-0.3-0.7-0.7c0-0.4,0.3-0.7,0.7-0.7l26.5-0.1l0,0c0.4,0,0.7,0.3,0.7,0.7
		c0,0.4-0.3,0.7-0.7,0.7c0,0,0,0,0,0L173.8,204L173.8,204z"></path><path class="st4" d="M203.1,203.9c-0.4,0-0.7-0.3-0.7-0.7c0-0.4,0.3-0.7,0.7-0.7l26.4-0.1c0.4,0,0.7,0.3,0.7,0.7
		c0,0.4-0.3,0.7-0.7,0.7L203.1,203.9z"></path><path class="st1" d="M122.4,209.5c-0.4,0-0.7-0.3-0.7-0.7c0-0.4,0.3-0.7,0.7-0.7c0,0,0,0,0,0h20.7l0,0c0.4,0,0.7,0.3,0.7,0.7
		c0,0.4-0.3,0.7-0.7,0.7H122.4z"></path><path class="st4" d="M147,209.5c-0.4,0-0.7-0.3-0.7-0.7c0-0.4,0.3-0.7,0.7-0.7h20.7l0,0c0.4,0,0.7,0.3,0.7,0.7
		c0,0.4-0.3,0.7-0.7,0.7c0,0,0,0,0,0H147z"></path><path class="st4" d="M171.8,209.4c-0.4,0-0.7-0.3-0.7-0.7c0-0.4,0.3-0.7,0.7-0.7c0,0,0,0,0,0h20.7l0,0c0.4,0,0.7,0.3,0.7,0.7
		c0,0.4-0.3,0.7-0.7,0.7c0,0,0,0,0,0H171.8z"></path><path class="st4" d="M197.5,210c-0.4,0-0.7-0.3-0.7-0.7c0-0.4,0.3-0.7,0.7-0.7h20.7l0,0c0.4,0,0.7,0.3,0.7,0.7
		c0,0.4-0.3,0.7-0.7,0.7H197.5z"></path><path class="st1" d="M126,215c-0.4,0-0.7-0.3-0.7-0.7c0-0.4,0.3-0.7,0.7-0.7h14.3l0,0c0.4,0,0.7,0.3,0.7,0.7c0,0.4-0.3,0.7-0.7,0.7
		H126z"></path><path class="st4" d="M143.6,215c-0.4,0-0.7-0.3-0.7-0.7c0-0.4,0.3-0.7,0.7-0.7c0,0,0,0,0,0h14.3l0,0c0.4,0,0.7,0.3,0.7,0.7
		c0,0.4-0.3,0.7-0.7,0.7H143.6z"></path><path class="st1" d="M190.9,215.4L190.9,215.4l-29.5-0.5c-0.4,0-0.7-0.3-0.7-0.7c0-0.4,0.3-0.7,0.7-0.7l0,0l29.5,0.5
		c0.4,0,0.7,0.3,0.7,0.7C191.6,215.1,191.3,215.4,190.9,215.4z"></path><path class="st1" d="M177.5,154.7c-0.4,0-0.7-0.3-0.7-0.7c0-0.4,0.3-0.7,0.7-0.7c0,0,0,0,0,0h19.3l0,0c0.4,0,0.7,0.3,0.7,0.7
		c0,0.4-0.3,0.7-0.7,0.7H177.5z"></path><path class="st4" d="M209.4,154.7c-1.7,0.1-3.4,0-5.1-0.1c-0.4-0.1-0.6-0.5-0.5-0.9c0.1-0.3,0.4-0.5,0.8-0.5
		c0.9,0.1,13.5,0,21.9-0.1l0,0c0.4,0,0.7,0.3,0.7,0.7c0,0.4-0.3,0.7-0.7,0.7c0,0,0,0,0,0C217.8,154.7,212.6,154.7,209.4,154.7z"></path><path class="st4" d="M158.5,176.6c-0.4,0-0.7-0.3-0.7-0.7c0,0,0,0,0,0c0-0.4,0.3-0.7,0.7-0.7h14.4l0,0c0.4,0,0.7,0.3,0.7,0.7
		c0,0.4-0.3,0.7-0.7,0.7c0,0,0,0,0,0L158.5,176.6L158.5,176.6z"></path><path class="st4" d="M129.6,182.2c-0.4,0-0.7-0.3-0.7-0.7c0-0.4,0.3-0.7,0.7-0.7c0,0,0,0,0,0h10.6c0.4,0,0.7,0.3,0.7,0.7
		c0,0.4-0.3,0.7-0.7,0.7H129.6z"></path><path class="st1" d="M144.2,182.1c-0.4,0-0.7-0.3-0.7-0.7c0-0.4,0.3-0.7,0.7-0.7h25.3l0,0c0.4,0,0.7,0.3,0.7,0.7
		c0,0.4-0.3,0.7-0.7,0.7H144.2z"></path><path class="st4" d="M174.6,182.1c-0.4,0-0.7-0.3-0.7-0.7c0-0.4,0.3-0.7,0.7-0.7l49-0.1l0,0c0.4,0,0.7,0.3,0.7,0.7
		c0,0.4-0.3,0.7-0.7,0.7c0,0,0,0,0,0L174.6,182.1z"></path><path class="st1" d="M122.3,224.8c-0.1,0-0.3,0-0.4-0.1l-2.9-2.2c-0.2-0.1-0.3-0.4-0.3-0.6c0-0.2,0.1-0.4,0.3-0.6l2.4-1.7
		c0.3-0.2,0.8-0.2,1,0.2c0,0,0,0,0,0c0.2,0.3,0.2,0.7-0.1,1c0,0,0,0-0.1,0l-1.6,1.1l2.1,1.6c0.3,0.2,0.4,0.6,0.2,1c0,0,0,0,0,0
		C122.8,224.7,122.5,224.8,122.3,224.8z"></path><path class="st1" d="M125.7,224.8c-0.2,0-0.4-0.1-0.5-0.2c-0.3-0.3-0.3-0.7,0-1l1.4-1.3l-2-1.4c-0.3-0.2-0.4-0.7-0.2-1c0,0,0,0,0,0
		c0.2-0.3,0.6-0.4,1-0.2c0,0,0,0,0,0l2.7,1.9c0.3,0.2,0.4,0.7,0.2,1c0,0-0.1,0.1-0.1,0.1l-2,1.9C126,224.7,125.9,224.8,125.7,224.8z
		"></path><path class="st3" d="M105,140l-0.2-1.7l6-3.9l1.6,2.1l-4.3,2.7l5,2.7l-1,2.1L105,140z"></path><path class="st3" d="M112.9,146.1h1.5c0.6,0,0.8-0.3,0.8-0.8l-1.2-9.1h2.9l1.2,9.1c0.3,2.5-0.6,3.5-3.1,3.5h-1.7L112.9,146.1z
		 M113.4,132.1h2.9l0.4,2.7h-2.9L113.4,132.1z"></path><path class="st3" d="M118.8,142.6c-0.2-1.6,0.8-2.5,3.6-2.9c1.6-0.2,2.1-0.5,2-0.9s-0.7-0.8-1.5-0.8c-0.9-0.1-1.8,0.5-1.9,1.4
		c0,0,0,0.1,0,0.1l-2.7-0.5c0.1-1.9,1.8-3.2,4.2-3.2c2.8,0,4.7,1.4,5,3.7l0.7,5.5h-2.6l-0.1-0.9l0,0c-0.7,0.8-1.8,1.2-2.9,1.1
		C120.5,145.3,119.1,144.3,118.8,142.6z M125,141.7l-0.1-0.9l0,0c-0.2,0.3-0.6,0.4-1.6,0.6c-1.3,0.3-1.7,0.5-1.7,1s0.5,0.7,1.3,0.7
		C124.2,143.1,125.1,142.5,125,141.7L125,141.7z"></path><path class="st3" d="M126.9,136.2h3.3l3.2,5.6l0,0l1.7-5.6h3.2l-3.2,8.9h-2.8L126.9,136.2z"></path><path class="st3" d="M139.1,142.6c-0.2-1.6,0.8-2.5,3.6-2.9c1.6-0.2,2.1-0.5,2-0.9s-0.7-0.8-1.5-0.8c-0.9-0.1-1.8,0.5-1.9,1.4
		c0,0,0,0.1,0,0.1l-2.7-0.5c0.1-1.9,1.8-3.2,4.2-3.2c2.8,0,4.7,1.4,5,3.7l0.7,5.5H146l-0.1-0.9l0,0c-0.7,0.8-1.8,1.2-2.9,1.1
		C140.9,145.3,139.4,144.3,139.1,142.6z M145.3,141.7l-0.1-0.9l0,0c-0.1,0.3-0.6,0.4-1.6,0.6c-1.3,0.3-1.7,0.5-1.7,1
		s0.5,0.7,1.3,0.7C144.5,143.1,145.4,142.5,145.3,141.7z"></path><path class="st3" d="M149.1,142.4l2.6-0.8c0.5,1.1,1.7,1.7,2.8,1.6c1.2,0,1.8-0.2,1.7-0.6s-0.6-0.6-2.4-0.9
		c-3.2-0.5-4.6-1.3-4.8-2.9s1.3-2.9,4-2.9c2.4,0,4.5,1.1,5.2,2.7l-2.5,0.8c-0.6-0.8-1.5-1.3-2.6-1.3c-0.9,0-1.4,0.2-1.4,0.6
		s0.5,0.6,2.5,0.9c3.1,0.5,4.5,1.3,4.8,3s-1.4,2.9-4.4,2.9C152.1,145.4,149.8,144.2,149.1,142.4z"></path><path class="st3" d="M159.5,140.6c-0.4-2.8,1.5-4.8,4.4-4.8c2.2-0.1,4.3,1.2,5.2,3.2l-2.6,0.8c-0.4-0.9-1.3-1.5-2.3-1.5
		c-1-0.1-1.9,0.7-1.9,1.7c0,0.2,0,0.4,0,0.6c0.1,1.3,1.2,2.2,2.5,2.2c0.9,0.1,1.7-0.6,1.9-1.5l2.8,0.8c-0.3,1.9-2,3.2-4.3,3.2
		C162.3,145.5,159.9,143.4,159.5,140.6z"></path><path class="st3" d="M169.8,136.2h2.7l0.1,0.9l0,0c0.6-0.7,1.5-1.1,2.5-1c0.5,0,1.1,0.1,1.6,0.2l-0.1,2.6c-0.4-0.1-0.9-0.2-1.4-0.2
		c-1.4,0-2.1,0.8-1.9,2.6l0.5,3.9H171L169.8,136.2z"></path><path class="st3" d="M177,132.1h2.9l0.4,2.7h-2.9L177,132.1z M177.6,136.2h2.9l1.2,8.9h-2.9L177.6,136.2z"></path><path class="st3" d="M182,136.2h2.8l0.1,0.8l0,0c0.7-0.7,1.6-1.1,2.6-1c2.7,0,4.9,2,5.3,4.7c0.5,2.1-0.9,4.1-3,4.6
		c-0.3,0.1-0.7,0.1-1,0.1c-1,0-2-0.3-2.8-0.9l0,0l0.6,4.4h-2.9L182,136.2z M189.9,140.6c-0.2-1.2-1.3-2.1-2.5-2.1
		c-1.2,0-2,0.8-1.9,1.7l0.1,1c0.3,1.1,1.3,1.8,2.4,1.7c1,0.1,1.9-0.7,2-1.7C189.9,141,189.9,140.8,189.9,140.6L189.9,140.6z"></path><path class="st3" d="M197.6,138.5l0.4,3.2c0.1,0.5,0.3,0.7,0.9,0.7h1.7l0.4,2.6h-2.1c-2.3,0-3.4-1-3.7-3.1l-0.5-3.5h-2.1l-0.3-2.3
		h2.1l-0.3-2.3h3l0.3,2.3h2.8l0.3,2.3H197.6z"></path><path class="st3" d="M201.9,141.9l4.3-2.7l-5-2.7l1-2.1l7.1,3.9l0.2,1.7l-6,3.9L201.9,141.9z"></path></g><g id="Keyboard"><rect class="st0" x="185.7" y="314" width="101.8" height="5.6"></rect><path class="st3" d="M287.5,320.3H185.7c-0.4,0-0.7-0.3-0.7-0.7l0,0V314c0-0.4,0.3-0.7,0.7-0.7c0,0,0,0,0,0h101.8
		c0.4,0,0.7,0.3,0.7,0.7v0v5.6C288.2,320,287.9,320.3,287.5,320.3z M186.4,318.9h100.4v-4.2H186.4L186.4,318.9z"></path></g><g id="Character"><path class="st0" d="M311.9,206.6c0,0,0.6-9.4-3.9-11.6s-22.1-6.3-22.1,2.7s11.2,17.5,13.2,18.7s11.3,28.9,11.3,28.9L331,222
		L311.9,206.6z"></path><path class="st3" d="M310.3,246.1h-0.1c-0.2,0-0.5-0.2-0.5-0.5c-4.4-13.1-9.7-27.5-11-28.5c-2.2-1.3-13.5-10-13.5-19.3
		c-0.1-2,0.9-3.8,2.6-4.9c5.3-3.3,17-0.2,20.5,1.5c4.4,2.2,4.4,10.1,4.4,11.9l18.8,15.2c0.1,0.1,0.2,0.3,0.3,0.5
		c0,0.2,0,0.4-0.2,0.5l-20.6,23.4C310.7,246,310.5,246.1,310.3,246.1z M294.3,192.9c-2-0.1-4,0.3-5.8,1.2c-1.3,0.8-2,2.2-1.9,3.7
		c0,8.6,10.8,16.9,12.8,18.1s8.6,20.5,11.2,28.1l19.4-21.9l-18.5-14.9c-0.2-0.1-0.3-0.4-0.3-0.6c0-0.1,0.5-8.9-3.5-10.9
		C303.4,193.9,298.9,192.9,294.3,192.9L294.3,192.9z"></path><path class="st0" d="M295.2,194.4c-1.1,1.9-4.1,8.1-0.5,8.9c2.2,0.5,3.1-1.6,4-3.1s0.8-2.5,1.2-4.3c1.5,1.8,0.8,9.8,4.3,10.4"></path><path class="st3" d="M304.2,207.1h-0.1c-2.7-0.5-3.3-4.2-3.8-7.2c-0.1-0.4-0.1-0.8-0.2-1.2c-0.2,0.6-0.4,1.3-0.8,1.9l-0.2,0.4
		c-0.8,1.5-2,3.7-4.6,3.1c-0.9-0.2-1.6-0.8-2-1.6c-1.2-2.9,1.9-8.1,2.1-8.4c0.2-0.3,0.6-0.4,1-0.2c0,0,0,0,0,0
		c0.3,0.2,0.5,0.6,0.3,1c0,0,0,0,0,0c-1.2,2-2.6,5.5-2,7.1c0.2,0.4,0.5,0.7,1,0.8c1.4,0.3,2.1-0.7,3-2.4l0.2-0.4
		c0.5-0.8,0.7-1.7,0.9-2.7c0.1-0.4,0.1-0.9,0.3-1.4c0.1-0.3,0.3-0.5,0.5-0.5c0.3-0.1,0.5,0,0.7,0.2c0.7,0.8,0.9,2.4,1.2,4.2
		c0.4,2.5,0.9,5.7,2.7,6c0.4,0.1,0.6,0.4,0.6,0.8C304.8,206.9,304.5,207.1,304.2,207.1L304.2,207.1z"></path><path class="st0" d="M363.3,180c0,0,11.1-8.1,14.3-13.1s10.2-40.3-6.2-37.6c-16.1-23.1-49.3-13.3-54.4,1
		c-4.4,12.5,11.7,15.4,17.2,17.1s11.6,28.3,19.2,32.7S363.3,180,363.3,180z"></path><path class="st3" d="M359.4,182.6c-2.2-0.1-4.4-0.8-6.3-2.1c-4.2-2.4-7.7-10.6-11.1-18.6c-2.8-6.5-5.6-13.2-8-14
		c-0.6-0.2-1.3-0.4-2.1-0.6c-4.7-1.3-12.6-3.5-15.4-8.9c-1.3-2.7-1.4-5.8-0.2-8.5c2.5-7.2,12-13.3,23-14.9
		c13.1-1.8,24.9,3.1,32.3,13.4c3.2-0.6,6.4,0.8,8.1,3.5c5.9,8.9,0.9,31.3-1.6,35.2c-3.1,4.9-13.1,12.3-14.3,13.3
		c-0.6,0.9-1.6,1.6-2.7,1.9C360.5,182.5,359.9,182.6,359.4,182.6z M344.6,116.1c-1.7,0-3.4,0.1-5.1,0.4
		c-10.5,1.4-19.5,7.2-21.9,13.9c-1,2.4-1,5.1,0.1,7.4c2.5,4.8,10,6.9,14.5,8.2c0.8,0.2,1.5,0.4,2.1,0.6c3,0.9,5.7,7.4,8.9,14.8
		s6.7,15.8,10.5,17.9c2.8,1.6,5.2,2.2,6.9,1.7c0.8-0.2,1.5-0.7,2-1.4c0-0.1,0.1-0.2,0.2-0.2c0.1-0.1,11-8.1,14.1-13
		c2.3-3.6,7.1-25.4,1.6-33.7c-1.6-2.4-4-3.4-7.1-2.9c-0.3,0.1-0.5-0.1-0.7-0.3C364.9,121,355.1,116,344.6,116.1z"></path><path class="st0" d="M328.5,156.4c0,0-8,10.7-6.6,13.1s6.5,1.2,6.5,1.2"></path><path class="st3" d="M325.6,171.7c-1.6,0-3.5-0.4-4.3-1.8c-1.5-2.6,4.7-11.3,6.7-13.9c0.2-0.3,0.7-0.4,1-0.1s0.4,0.7,0.1,1
		c-3.7,5-7.3,11.1-6.6,12.3c0.9,1.6,4.5,1.1,5.8,0.8c0.4-0.1,0.8,0.1,0.8,0.5c0.1,0.4-0.1,0.8-0.5,0.8l0,0
		C327.6,171.6,326.6,171.7,325.6,171.7z"></path><path class="st0" d="M330.9,141.8c-4.9,3.6-4,11.7-4.3,17c-0.4,7.4-0.6,14.8-0.6,22.2c0,4.7,12.1,5.5,14.3,4.2l-3,18.4l26.1-8.3
		l-0.1-15.3c0,0-8.3-0.4-12.5-10.3s-2.3-30.6-2.3-30.6S335.7,138.3,330.9,141.8z"></path><path class="st3" d="M337.4,204.3c-0.2,0-0.3-0.1-0.5-0.2c-0.2-0.2-0.3-0.4-0.2-0.6l2.8-17.3c-2.9,0.6-8.6,0.1-11.8-1.7
		c-2-1.2-2.4-2.6-2.4-3.5c0-7.4,0.2-14.9,0.6-22.3c0-0.9,0-1.9,0.1-2.9c0.1-5.1,0.1-11.5,4.5-14.7l0,0c4.9-3.6,17.6-2.8,18.1-2.8
		c0.2,0,0.4,0.1,0.5,0.2c0.1,0.1,0.2,0.3,0.2,0.5c0,0.2-1.8,20.7,2.2,30.2c4,9.3,11.5,9.8,11.9,9.8c0.4,0,0.7,0.3,0.7,0.7l0.1,15.4
		c0,0.3-0.2,0.6-0.5,0.7l-26.1,8.3C337.5,204.3,337.5,204.3,337.4,204.3z M340.4,184.5c0.1,0,0.3,0,0.4,0.1c0.2,0.2,0.3,0.4,0.3,0.7
		l-2.8,17.3l24.5-7.8l-0.1-14.2c-2.1-0.3-8.7-2-12.4-10.6c-3.8-9-2.7-26.4-2.4-30.2c-2.7-0.1-12.6-0.3-16.5,2.5s-3.9,8.7-3.9,13.6
		c0,1,0,2-0.1,2.9c-0.4,7.4-0.6,14.8-0.6,22.2c0,0.9,0.6,1.6,1.7,2.3c3.4,2,10.1,2.1,11.6,1.3C340.1,184.6,340.2,184.5,340.4,184.5
		L340.4,184.5z"></path><path class="st0" d="M326.5,175.5c3-0.3,6-0.9,8.9-1.9"></path><path class="st3" d="M326.5,176.2c-0.4,0-0.7-0.3-0.7-0.7c0-0.4,0.3-0.7,0.6-0.7c0,0,0,0,0,0c3-0.3,5.9-0.9,8.7-1.9
		c0.4-0.1,0.8,0.1,0.9,0.4c0.1,0.4-0.1,0.8-0.4,0.9C332.7,175.3,329.7,175.9,326.5,176.2L326.5,176.2z"></path><path class="st0" d="M342.4,162c0.1-1.9,1.3-3.5,2.4-5c0.8-1.2,1.8-2.3,2.9-3.2c1.1-0.9,2.6-1.3,4.1-1c1.2,0.4,2.2,1.3,2.8,2.5
		c0.5,1.2,0.8,2.4,0.7,3.7c-0.1,5.7-3.2,10.9-8.2,13.7l0.4-0.4"></path><path class="st3" d="M347,173.4c-0.2,0-0.4-0.1-0.6-0.3c-0.2-0.3-0.2-0.7,0.1-0.9l0.4-0.4l0.1,0.1c4.5-2.7,7.4-7.6,7.5-12.9
		c0-1.2-0.2-2.3-0.6-3.4c-0.4-1-1.3-1.8-2.3-2.1c-1.2-0.2-2.5,0.1-3.5,0.9c-1.1,0.9-2,1.9-2.7,3.1c-0.9,1.3-2.1,2.9-2.2,4.6
		c0,0.4-0.4,0.7-0.8,0.6s-0.7-0.4-0.6-0.8l0,0c0.2-2.1,1.5-3.9,2.5-5.3c0.8-1.3,1.8-2.4,3-3.4c1.3-1.1,3-1.5,4.7-1.1
		c1.4,0.4,2.6,1.5,3.2,2.8c0.6,1.3,0.8,2.6,0.8,4c-0.1,5.9-3.3,11.4-8.5,14.3C347.2,173.3,347.1,173.4,347,173.4z"></path><ellipse class="st3" transform="matrix(0.1122 -0.9937 0.9937 0.1122 144.0611 462.7557)" cx="331" cy="150.8" rx="2.6" ry="1"></ellipse><path class="st0" d="M368.4,200.2l-1.7-8.3h-32.7l-4.2,11.9C329.7,203.8,347.5,208.8,368.4,200.2z"></path><path class="st3" d="M342.8,205.9c-4.5,0.1-9-0.4-13.4-1.4c-0.4-0.1-0.6-0.5-0.5-0.9c0,0,0,0,0,0l4.2-11.9c0.1-0.3,0.4-0.5,0.7-0.5
		h32.8c0.3,0,0.6,0.2,0.7,0.6l1.7,8.3c0.1,0.3-0.1,0.7-0.4,0.8C360.4,204.2,351.7,205.9,342.8,205.9z M330.6,203.3
		c12.4,2.4,25.3,1.2,37-3.5l-1.5-7.2h-31.7L330.6,203.3z"></path><path class="st4" d="M394,336.2c0,0,12.4-101.5-2.3-122.2s-50.9-24.1-67.6-10.7s-25,144.1-25,144.1S344.1,352.9,394,336.2z"></path><path class="st0" d="M198.6,287.1c1.4-4,15.1-7.8,19.4-7.8c2.8,0,10.5,3.4,15.4,5.7l0,0l47.5,5l25.6-44.6l23.1,26.3
		c0,0-17.4,42.3-25.2,45s-75.9-16.2-75.9-16.2l-15.7-4.3c-6,1.9-11.4-4.1-11.4-4.8s-2.5,6.4-4.3,6.2S197.1,291.1,198.6,287.1z"></path><path class="st3" d="M302.1,317.7c-14.5,0-71.1-15.7-73.7-16.5l-15.5-4.3c-3.9,1.1-7.4-0.9-9.1-2.1c-0.8-0.6-1.5-1.3-2.2-2
		c-1.4,2.9-2.8,5.7-4.5,5.5c-0.4,0-0.8-0.3-1.1-0.7c-1.1-1.8,0.7-7.6,1.9-10.8l0,0c1.7-4.6,15.9-8.3,20.1-8.3c2.9,0,10,3.1,15.6,5.7
		l46.9,4.9l25.4-44.2c0.2-0.3,0.6-0.5,1-0.3c0.1,0,0.1,0.1,0.2,0.2l23.1,26.3c0.2,0.2,0.2,0.5,0.1,0.7c-0.7,1.7-17.6,42.6-25.6,45.5
		C303.8,317.7,303,317.8,302.1,317.7z M212.8,295.6h0.2l15.7,4.3c23.4,6.5,69.4,18.3,75.5,16.2s19.7-32.3,24.6-44.3l-22.2-25.3
		l-25.2,43.7c-0.1,0.2-0.4,0.4-0.7,0.4l-47.5-5c-0.1,0-0.1,0-0.2-0.1C225.4,282,220,280,218,280c-4.6,0-17.6,4-18.8,7.4
		c-2.1,5.9-2.5,9.2-2,9.6c0.3,0,1.1-0.4,3.1-4.9c0.5-1.1,0.7-1.5,1.3-1.4c0.3,0.1,0.5,0.3,0.6,0.6c0.4,0.9,5.2,5.9,10.5,4.2
		C212.7,295.6,212.8,295.6,212.8,295.6L212.8,295.6z"></path><path class="st4" d="M324,203.2l-32.8,54.1l38.4,23l25.5-51.6C355.2,228.8,333.2,204.2,324,203.2z"></path><path class="st3" d="M329.7,272.4c-0.1,0-0.2,0-0.3-0.1c-0.3-0.2-0.5-0.6-0.3-0.9c0,0,0,0,0,0c7.5-15.3,19.4-40.3,19.3-42.5
		c-0.1-0.4,0.1-0.7,0.5-0.8c0.4-0.1,0.8,0.1,0.9,0.5c0.6,2.5-14.7,33.9-19.4,43.4C330.2,272.3,329.9,272.4,329.7,272.4z"></path></g><g id="Chair"><path class="st3" d="M307.2,350.9h19.6l23.3-105c3.6-16.2,17.9-27.7,34.5-27.7h42.2c19.5,0,35.3,15.8,35.3,35.4
		c0,2.4-0.2,4.7-0.7,7.1l-25.3,123.9l-116.6-0.8h-38.7v-6.5C280.9,362.8,292.7,351,307.2,350.9C307.2,350.9,307.2,350.9,307.2,350.9
		z"></path><path class="st3" d="M436.2,385.3L436.2,385.3l-116.6-0.8h-38.7c-0.4,0-0.7-0.3-0.7-0.7v0v-6.5c0-14.9,12.1-27.1,27.1-27.1h19
		l23.1-104.5c3.6-16.5,18.3-28.3,35.2-28.2h42.2c19.9,0,36,16.1,36,36c0,2.5-0.2,4.9-0.7,7.3l-25.3,123.9
		C436.8,385,436.5,385.3,436.2,385.3z M281.6,383.1h38l116.1,0.8l25.2-123.4c3.8-18.8-8.3-37.1-27-40.9c-2.3-0.5-4.6-0.7-6.9-0.7
		h-42.2c-16.3-0.1-30.4,11.2-33.8,27.1l-23.3,105c-0.1,0.3-0.4,0.5-0.7,0.5h-19.6c-14.2,0-25.7,11.5-25.7,25.7V383.1z"></path><path class="st0" d="M348.8,374.5h-0.1c-0.4-0.1-0.6-0.5-0.5-0.8c0.2-0.9,18.6-90.6,27.9-137.3c0.1-0.4,0.4-0.6,0.8-0.6
		c0,0,0,0,0,0c0.4,0.1,0.6,0.4,0.5,0.8c-9.4,46.7-27.8,136.4-28,137.3C349.4,374.2,349.1,374.4,348.8,374.5z"></path></g><g id="Hot_Cup"><path class="st1" d="M264.7,186.6c-0.2,0-0.4-0.1-0.5-0.2c-0.3-0.3-0.2-0.7,0.1-1c1.8-1.6,4.6-4.6,3.8-7.9c-0.5-1.8-1.9-3-3.3-4.4
		c-0.6-0.6-1.3-1.2-1.8-1.8c-4-4.6-4.5-11.3-1.2-16.5c0.2-0.3,0.6-0.5,0.9-0.3c0.3,0.2,0.5,0.6,0.3,0.9c0,0,0,0.1-0.1,0.1
		c-2.9,4.6-2.5,10.7,1.1,14.8c0.5,0.6,1.1,1.2,1.7,1.7c1.6,1.4,3.2,2.9,3.7,5.1c1,4-2.2,7.5-4.2,9.3
		C265.1,186.5,264.9,186.6,264.7,186.6z"></path><path class="st1" d="M283.8,185.1c-0.4,0-0.7-0.3-0.7-0.7c0-0.2,0.1-0.5,0.3-0.6c1.5-1.1,2.4-3.5,1.3-5.2c-0.3-0.4-0.6-0.7-0.9-1.1
		l-0.4-0.4c-2.1-2.3-3.3-5.3-3.2-8.4c0-1.7,0.6-3.4,1.7-4.6c0.3-0.3,0.7-0.3,1,0s0.3,0.7,0,1c-0.9,1-1.3,2.3-1.3,3.7
		c-0.1,2.8,1,5.4,2.8,7.4l0.4,0.4c0.4,0.4,0.8,0.8,1.1,1.3c1.4,2.2,0.6,5.5-1.7,7.1C284.1,185.1,283.9,185.1,283.8,185.1z"></path><path class="st1" d="M274.7,186.6c-0.2,0-0.5-0.1-0.6-0.3c-0.2-0.3-0.2-0.8,0.2-1c0,0,0,0,0,0c1.3-0.9,2.1-2.4,2.1-4
		c-0.1-1.7-1.1-3.3-2.1-4.9c-0.3-0.5-0.6-1-0.9-1.5c-3.2-5.5-3.3-12.3-0.4-17.9c0.2-0.3,0.6-0.5,1-0.3c0.3,0.2,0.5,0.6,0.3,0.9l0,0
		c-2.7,5.2-2.6,11.5,0.3,16.5c0.3,0.5,0.6,1,0.9,1.4c1.1,1.7,2.3,3.5,2.4,5.6c0.1,2.1-1,4.1-2.7,5.2
		C275,186.5,274.8,186.6,274.7,186.6z"></path><path class="st3" d="M291.4,211.7c-1.8,0-3.6-0.4-5.3-1.2c-0.4-0.2-0.5-0.6-0.3-0.9s0.6-0.5,0.9-0.3c5.1,2.4,9.4,0.6,11.4-2.2
		c1.3-1.8,1.8-4.4,0-6.3c-0.3-0.3-0.3-0.7,0-1s0.7-0.3,1,0c2,2.1,2,5.3,0.1,8.1C297.4,210.3,294.5,211.8,291.4,211.7z"></path><path class="st0" d="M274.1,219.3c-20.5,0-18.3-28-18.3-28h36.5C292.3,191.3,294.5,219.3,274.1,219.3z"></path><path class="st0" d="M274.1,219.3c-20.5,0-18.3-28-18.3-28h36.5C292.3,191.3,294.5,219.3,274.1,219.3z"></path><path class="st3" d="M274.1,220c-4.7,0.2-9.3-1.7-12.6-5.2c-7.6-8.2-6.5-23-6.4-23.6c0-0.4,0.3-0.6,0.7-0.6h36.5
		c0.4,0,0.7,0.3,0.7,0.6c0,0.6,1.1,15.4-6.4,23.6C283.4,218.3,278.8,220.2,274.1,220z M256.5,192c-0.1,2.9-0.2,15.1,6.1,21.9
		c6.4,6.3,16.6,6.3,23,0c6.3-6.8,6.2-19,6.1-21.9H256.5z"></path></g></svg>