<svg width="584" height="504" viewBox="0 0 584 504" fill="none" xmlns="http://www.w3.org/2000/svg">
<g clip-path="url(#clip0_3081_1140)">
<path d="M526.271 262.229C526.347 324.58 502.031 384.531 458.435 429.481C455.807 432.209 453.108 434.87 450.337 437.466C446.117 441.445 441.755 445.27 437.251 448.941C395.116 483.346 342.516 502.68 287.936 503.823C286.117 503.864 284.292 503.884 282.46 503.884C238.931 503.884 184.182 480.84 134.497 448.941C130.386 446.302 126.312 443.601 122.275 440.84C120.388 439.561 118.51 438.264 116.641 436.949C97.4781 423.538 79.2889 408.811 62.2073 392.875C51.0234 382.472 40.5358 371.357 30.8113 359.601C-7.36484 312.929 -15.7851 270.874 38.6415 262.229C45.0854 261.209 51.3394 260.119 57.4036 258.958C66.1876 257.285 74.5942 255.478 82.6233 253.537C93.4386 250.932 103.6 248.107 113.107 245.062C116.305 244.042 119.429 243.001 122.481 241.94C167.595 226.235 197.79 205.756 218.343 183.535C221.829 179.773 225.043 175.967 227.985 172.115C232.486 166.252 236.574 160.088 240.221 153.669C245.254 144.749 249.482 135.406 252.855 125.748L253.04 125.218C269.394 78.4632 264.418 35.0961 282.46 20.5814C359.581 -41.4698 455.594 46.8969 500.66 151.104C502.932 156.355 505.068 161.638 507.07 166.952C507.969 169.326 508.836 171.704 509.671 174.087C511.867 180.297 513.859 186.523 515.648 192.764C516.334 195.145 516.989 197.523 517.611 199.899C518.276 202.464 518.915 205.021 519.505 207.578C523.89 226.303 526.271 244.77 526.271 262.229Z" fill="#73766F"/>
<path d="M287.936 503.823C286.117 503.864 284.292 503.884 282.46 503.884C238.931 503.884 184.182 480.84 134.497 448.941C130.386 446.302 126.312 443.601 122.275 440.84L125.816 419.483L233.015 405.376L286.817 446.152L287.936 503.823Z" fill="#2F2E41"/>
<path d="M293.097 122.463H277.821C277.348 122.463 276.894 122.649 276.559 122.981C276.225 123.313 276.037 123.762 276.037 124.231V139.378C276.037 139.61 276.083 139.84 276.173 140.054C276.263 140.268 276.394 140.462 276.56 140.626C276.726 140.79 276.922 140.919 277.139 141.007C277.355 141.096 277.587 141.141 277.821 141.14H293.097C293.569 141.14 294.022 140.955 294.356 140.625C294.691 140.294 294.879 139.846 294.881 139.378V124.231C294.88 123.763 294.691 123.314 294.357 122.982C294.023 122.651 293.569 122.464 293.097 122.463Z" fill="white"/>
<path d="M293.097 148.275H277.821C277.348 148.275 276.894 148.461 276.559 148.793C276.225 149.125 276.037 149.574 276.037 150.043V165.191C276.037 165.422 276.083 165.652 276.173 165.866C276.263 166.08 276.394 166.274 276.56 166.438C276.726 166.602 276.922 166.731 277.139 166.82C277.355 166.908 277.587 166.953 277.821 166.952H293.097C293.569 166.952 294.022 166.767 294.356 166.437C294.691 166.107 294.879 165.658 294.881 165.191V150.043C294.88 149.575 294.691 149.126 294.357 148.794C294.023 148.463 293.569 148.276 293.097 148.275Z" fill="#E6E6E6"/>
<path d="M293.097 174.087H277.821C277.348 174.087 276.894 174.274 276.559 174.605C276.225 174.937 276.037 175.387 276.037 175.856V190.996C276.036 191.228 276.082 191.459 276.171 191.673C276.261 191.888 276.392 192.083 276.558 192.247C276.724 192.412 276.921 192.542 277.137 192.631C277.354 192.719 277.586 192.765 277.821 192.764H293.097C293.57 192.764 294.024 192.578 294.358 192.246C294.693 191.915 294.881 191.465 294.881 190.996V175.856C294.88 175.387 294.691 174.938 294.357 174.607C294.023 174.275 293.57 174.089 293.097 174.087Z" fill="#E6E6E6"/>
<path d="M294.854 201.355C294.777 200.947 294.56 200.579 294.24 200.313C293.919 200.048 293.515 199.901 293.097 199.899H277.821C277.348 199.899 276.894 200.086 276.559 200.417C276.225 200.749 276.037 201.199 276.037 201.668V216.808C276.036 217.04 276.082 217.271 276.171 217.485C276.261 217.7 276.392 217.895 276.558 218.06C276.724 218.224 276.921 218.354 277.137 218.443C277.354 218.532 277.586 218.577 277.821 218.576H293.097C293.57 218.576 294.024 218.39 294.358 218.058C294.693 217.727 294.881 217.277 294.881 216.808V201.668C294.882 201.563 294.873 201.458 294.854 201.355Z" fill="#E6E6E6"/>
<path d="M293.79 225.848C293.57 225.757 293.335 225.711 293.097 225.711H277.821C277.586 225.711 277.354 225.756 277.137 225.845C276.921 225.934 276.724 226.064 276.558 226.228C276.392 226.393 276.261 226.588 276.171 226.803C276.082 227.017 276.036 227.247 276.037 227.48V242.62C276.036 242.853 276.081 243.083 276.17 243.298C276.26 243.513 276.391 243.709 276.557 243.873C276.723 244.037 276.92 244.168 277.137 244.256C277.354 244.345 277.586 244.39 277.821 244.389H293.097C293.57 244.389 294.024 244.202 294.358 243.871C294.693 243.539 294.881 243.089 294.881 242.62V227.48C294.88 227.132 294.776 226.792 294.582 226.501C294.388 226.211 294.113 225.984 293.79 225.848Z" fill="#E6E6E6"/>
<path d="M325.186 122.463H309.91C309.437 122.463 308.983 122.649 308.649 122.981C308.314 123.313 308.126 123.762 308.126 124.231V139.378C308.126 139.61 308.172 139.84 308.262 140.054C308.352 140.268 308.484 140.462 308.649 140.626C308.815 140.79 309.012 140.919 309.228 141.007C309.444 141.096 309.676 141.141 309.91 141.14H325.186C325.658 141.14 326.111 140.955 326.445 140.625C326.78 140.294 326.969 139.846 326.97 139.378V124.231C326.969 123.763 326.78 123.314 326.446 122.982C326.112 122.651 325.659 122.464 325.186 122.463Z" fill="#E6E6E6"/>
<path d="M325.186 148.275H309.91C309.437 148.275 308.983 148.461 308.649 148.793C308.314 149.125 308.126 149.574 308.126 150.043V165.191C308.126 165.422 308.172 165.652 308.262 165.866C308.352 166.08 308.484 166.274 308.649 166.438C308.815 166.602 309.012 166.731 309.228 166.82C309.444 166.908 309.676 166.953 309.91 166.952H325.186C325.658 166.952 326.111 166.767 326.445 166.437C326.78 166.107 326.969 165.658 326.97 165.191V150.043C326.969 149.575 326.78 149.126 326.446 148.794C326.112 148.463 325.659 148.276 325.186 148.275Z" fill="#FEA55F" fill-opacity="0.5"/>
<path d="M325.186 174.087H309.91C309.437 174.087 308.983 174.274 308.649 174.605C308.314 174.937 308.126 175.387 308.126 175.856V190.996C308.125 191.228 308.171 191.459 308.261 191.673C308.35 191.888 308.481 192.083 308.647 192.247C308.813 192.412 309.01 192.542 309.227 192.631C309.443 192.719 309.675 192.765 309.91 192.764H325.186C325.659 192.764 326.113 192.578 326.447 192.246C326.782 191.915 326.97 191.465 326.97 190.996V175.856C326.969 175.387 326.78 174.938 326.446 174.607C326.112 174.275 325.659 174.089 325.186 174.087Z" fill="#FEA55F" fill-opacity="0.5"/>
<path d="M325.186 199.899H309.91C309.536 199.899 309.171 200.017 308.868 200.234C308.565 200.451 308.339 200.758 308.222 201.11C308.158 201.289 308.126 201.478 308.126 201.668V216.808C308.125 217.04 308.171 217.271 308.261 217.485C308.35 217.7 308.481 217.895 308.647 218.06C308.813 218.224 309.01 218.354 309.227 218.443C309.443 218.531 309.675 218.577 309.91 218.576H325.186C325.659 218.576 326.113 218.39 326.447 218.058C326.782 217.727 326.97 217.277 326.97 216.808V201.668C326.969 201.199 326.78 200.75 326.446 200.419C326.112 200.087 325.659 199.901 325.186 199.899Z" fill="#FEA55F" fill-opacity="0.5"/>
<path d="M325.186 225.711H309.91C309.675 225.711 309.443 225.756 309.227 225.845C309.01 225.934 308.813 226.064 308.647 226.228C308.481 226.393 308.35 226.588 308.261 226.803C308.171 227.017 308.125 227.247 308.126 227.48V242.62C308.125 242.853 308.171 243.083 308.261 243.298C308.35 243.512 308.481 243.707 308.647 243.872C308.813 244.036 309.01 244.166 309.227 244.255C309.443 244.344 309.675 244.389 309.91 244.389H325.186C325.659 244.389 326.113 244.202 326.447 243.871C326.782 243.539 326.97 243.089 326.97 242.62V227.48C326.97 227.011 326.782 226.561 326.447 226.23C326.113 225.898 325.659 225.712 325.186 225.711Z" fill="#E6E6E6"/>
<path d="M357.275 122.463H341.999C341.526 122.463 341.072 122.649 340.738 122.981C340.403 123.313 340.215 123.762 340.215 124.231V139.378C340.215 139.61 340.261 139.84 340.351 140.054C340.441 140.268 340.573 140.462 340.738 140.626C340.904 140.79 341.101 140.919 341.317 141.007C341.533 141.096 341.765 141.141 341.999 141.14H357.275C357.747 141.14 358.2 140.955 358.534 140.625C358.869 140.294 359.058 139.846 359.059 139.378V124.231C359.058 123.763 358.869 123.314 358.535 122.982C358.201 122.651 357.748 122.464 357.275 122.463Z" fill="#FEA55F" fill-opacity="0.5"/>
<path d="M357.275 148.275H341.999C341.526 148.275 341.072 148.461 340.738 148.793C340.403 149.125 340.215 149.574 340.215 150.043V165.191C340.215 165.422 340.261 165.652 340.351 165.866C340.441 166.08 340.573 166.274 340.738 166.438C340.904 166.602 341.101 166.731 341.317 166.82C341.533 166.908 341.765 166.953 341.999 166.952H357.275C357.747 166.952 358.2 166.767 358.534 166.437C358.869 166.107 359.058 165.658 359.059 165.191V150.043C359.058 149.575 358.869 149.126 358.535 148.794C358.201 148.463 357.748 148.276 357.275 148.275Z" fill="#FEA55F" fill-opacity="0.5"/>
<path d="M357.275 174.087H341.999C341.526 174.087 341.072 174.274 340.738 174.605C340.403 174.937 340.215 175.387 340.215 175.856V190.996C340.214 191.228 340.26 191.459 340.35 191.673C340.439 191.888 340.571 192.083 340.736 192.247C340.902 192.412 341.099 192.542 341.316 192.631C341.532 192.719 341.765 192.765 341.999 192.764H357.275C357.748 192.764 358.202 192.578 358.536 192.246C358.871 191.915 359.059 191.465 359.059 190.996V175.856C359.058 175.387 358.869 174.938 358.535 174.607C358.201 174.275 357.748 174.089 357.275 174.087Z" fill="#E6E6E6"/>
<path d="M357.275 199.899H341.999C341.526 199.899 341.072 200.086 340.738 200.417C340.403 200.749 340.215 201.199 340.215 201.668V216.808C340.214 217.04 340.26 217.271 340.35 217.485C340.439 217.7 340.571 217.895 340.736 218.06C340.902 218.224 341.099 218.354 341.316 218.443C341.532 218.532 341.765 218.577 341.999 218.576H357.275C357.748 218.576 358.202 218.39 358.536 218.058C358.871 217.727 359.059 217.277 359.059 216.808V201.668C359.058 201.199 358.869 200.75 358.535 200.419C358.201 200.087 357.748 199.901 357.275 199.899Z" fill="#FEA55F" fill-opacity="0.5"/>
<path d="M357.275 225.711H341.999C341.765 225.711 341.532 225.756 341.316 225.845C341.099 225.934 340.902 226.064 340.736 226.228C340.571 226.393 340.439 226.588 340.35 226.803C340.26 227.017 340.214 227.247 340.215 227.48V242.62C340.214 242.853 340.26 243.083 340.35 243.298C340.439 243.512 340.571 243.707 340.736 243.872C340.902 244.036 341.099 244.166 341.316 244.255C341.532 244.344 341.765 244.389 341.999 244.389H357.275C357.748 244.389 358.202 244.202 358.536 243.871C358.871 243.539 359.059 243.089 359.059 242.62V227.48C359.059 227.011 358.871 226.561 358.536 226.23C358.202 225.898 357.748 225.712 357.275 225.711Z" fill="#FEA55F" fill-opacity="0.5"/>
<path d="M389.364 122.463H374.088C373.615 122.463 373.161 122.649 372.827 122.981C372.492 123.313 372.304 123.762 372.304 124.231V139.378C372.304 139.61 372.35 139.84 372.44 140.054C372.53 140.268 372.662 140.462 372.827 140.626C372.993 140.79 373.19 140.919 373.406 141.007C373.622 141.096 373.854 141.141 374.088 141.14H389.364C389.836 141.14 390.289 140.955 390.623 140.625C390.958 140.294 391.147 139.846 391.148 139.378V124.231C391.147 123.763 390.958 123.314 390.624 122.982C390.29 122.651 389.837 122.464 389.364 122.463Z" fill="#FEA55F" fill-opacity="0.5"/>
<path d="M389.364 148.275H374.088C373.615 148.275 373.161 148.462 372.827 148.793C372.492 149.125 372.304 149.574 372.304 150.043V165.191C372.304 165.422 372.35 165.652 372.44 165.866C372.53 166.08 372.662 166.274 372.827 166.438C372.993 166.602 373.19 166.731 373.406 166.82C373.622 166.908 373.854 166.953 374.088 166.952H389.364C389.836 166.952 390.289 166.767 390.623 166.437C390.958 166.107 391.147 165.658 391.148 165.191V150.043C391.147 149.575 390.958 149.126 390.624 148.794C390.29 148.463 389.837 148.276 389.364 148.275Z" fill="white"/>
<path d="M389.364 174.087H374.088C373.615 174.087 373.161 174.274 372.827 174.605C372.492 174.937 372.304 175.387 372.304 175.856V190.996C372.303 191.228 372.349 191.459 372.439 191.673C372.528 191.888 372.659 192.083 372.825 192.247C372.991 192.412 373.188 192.542 373.405 192.631C373.621 192.719 373.854 192.765 374.088 192.764H389.364C389.837 192.764 390.291 192.578 390.625 192.246C390.96 191.915 391.148 191.465 391.148 190.996V175.856C391.147 175.387 390.958 174.938 390.624 174.607C390.29 174.275 389.837 174.089 389.364 174.087Z" fill="white"/>
<path d="M389.364 199.899H374.088C373.615 199.899 373.161 200.086 372.827 200.417C372.492 200.749 372.304 201.199 372.304 201.668V216.808C372.303 217.04 372.349 217.271 372.439 217.485C372.528 217.7 372.659 217.895 372.825 218.06C372.991 218.224 373.188 218.354 373.405 218.443C373.621 218.532 373.854 218.577 374.088 218.576H389.364C389.837 218.576 390.291 218.39 390.625 218.058C390.96 217.727 391.148 217.277 391.148 216.808V201.668C391.147 201.199 390.958 200.75 390.624 200.419C390.29 200.087 389.837 199.901 389.364 199.899Z" fill="#E6E6E6"/>
<path d="M389.364 225.711H374.088C373.854 225.711 373.621 225.756 373.405 225.845C373.188 225.934 372.991 226.064 372.825 226.228C372.659 226.393 372.528 226.588 372.439 226.803C372.349 227.017 372.303 227.247 372.304 227.48V242.62C372.303 242.853 372.349 243.083 372.439 243.298C372.528 243.512 372.659 243.707 372.825 243.872C372.991 244.036 373.188 244.166 373.405 244.255C373.621 244.344 373.854 244.389 374.088 244.389H389.364C389.837 244.389 390.291 244.202 390.625 243.871C390.96 243.539 391.148 243.089 391.148 242.62V227.48C391.148 227.011 390.96 226.561 390.625 226.23C390.291 225.898 389.837 225.712 389.364 225.711Z" fill="#FEA55F" fill-opacity="0.5"/>
<path d="M421.453 122.463H406.17C405.698 122.465 405.246 122.652 404.913 122.983C404.58 123.314 404.393 123.763 404.393 124.231V139.378C404.393 139.846 404.58 140.294 404.914 140.624C405.247 140.954 405.699 141.14 406.17 141.14H421.453C421.925 141.14 422.378 140.955 422.713 140.625C423.047 140.294 423.236 139.846 423.237 139.378V124.231C423.236 123.763 423.048 123.314 422.713 122.982C422.379 122.651 421.926 122.464 421.453 122.463Z" fill="white"/>
<path d="M421.453 148.275H406.17C405.698 148.277 405.246 148.464 404.913 148.795C404.58 149.127 404.393 149.575 404.393 150.043V165.191C404.393 165.658 404.58 166.106 404.914 166.436C405.247 166.766 405.699 166.952 406.17 166.952H421.453C421.925 166.952 422.378 166.767 422.713 166.437C423.047 166.107 423.236 165.658 423.237 165.191V150.043C423.236 149.575 423.048 149.126 422.713 148.794C422.379 148.463 421.926 148.276 421.453 148.275Z" fill="white"/>
<path d="M421.453 174.087H406.17C405.698 174.089 405.246 174.276 404.913 174.607C404.58 174.939 404.393 175.388 404.393 175.856V190.996C404.392 191.228 404.438 191.458 404.527 191.672C404.616 191.886 404.746 192.081 404.912 192.246C405.077 192.41 405.273 192.54 405.489 192.629C405.705 192.718 405.936 192.764 406.17 192.764H421.453C421.926 192.764 422.38 192.578 422.714 192.246C423.049 191.915 423.237 191.465 423.237 190.996V175.856C423.236 175.387 423.048 174.938 422.713 174.607C422.379 174.275 421.926 174.089 421.453 174.087Z" fill="white"/>
<path d="M421.453 199.899H406.17C405.698 199.901 405.246 200.088 404.913 200.419C404.58 200.751 404.393 201.2 404.393 201.668V216.808C404.392 217.04 404.438 217.27 404.527 217.484C404.616 217.698 404.746 217.893 404.912 218.058C405.077 218.222 405.273 218.352 405.489 218.441C405.705 218.53 405.936 218.576 406.17 218.576H421.453C421.926 218.576 422.38 218.39 422.714 218.058C423.049 217.727 423.237 217.277 423.237 216.808V201.668C423.236 201.199 423.048 200.75 422.713 200.419C422.379 200.087 421.926 199.901 421.453 199.899Z" fill="#FEA55F" fill-opacity="0.5"/>
<path d="M421.453 225.711H406.17C405.936 225.712 405.705 225.758 405.489 225.847C405.273 225.936 405.077 226.066 404.912 226.23C404.746 226.395 404.616 226.589 404.527 226.804C404.438 227.018 404.392 227.248 404.393 227.48V242.62C404.392 242.852 404.438 243.082 404.527 243.296C404.616 243.511 404.746 243.706 404.912 243.87C405.077 244.034 405.273 244.164 405.489 244.253C405.705 244.343 405.936 244.388 406.17 244.389H421.453C421.926 244.389 422.38 244.202 422.714 243.871C423.049 243.539 423.237 243.089 423.237 242.62V227.48C423.237 227.011 423.049 226.561 422.714 226.23C422.38 225.898 421.926 225.712 421.453 225.711Z" fill="#E6E6E6"/>
<path d="M453.542 122.463H438.259C437.787 122.465 437.335 122.652 437.002 122.983C436.669 123.314 436.482 123.763 436.482 124.231V139.378C436.482 139.846 436.669 140.294 437.003 140.624C437.336 140.954 437.788 141.14 438.259 141.14H453.542C454.014 141.14 454.467 140.955 454.802 140.625C455.136 140.294 455.325 139.846 455.326 139.378V124.231C455.325 123.763 455.137 123.314 454.802 122.982C454.468 122.651 454.015 122.464 453.542 122.463Z" fill="white"/>
<path d="M453.542 148.275H438.259C437.787 148.277 437.335 148.464 437.002 148.795C436.669 149.127 436.482 149.575 436.482 150.043V165.191C436.482 165.658 436.669 166.106 437.003 166.436C437.336 166.766 437.788 166.952 438.259 166.952H453.542C454.014 166.952 454.467 166.767 454.802 166.437C455.136 166.107 455.325 165.658 455.326 165.191V150.043C455.325 149.575 455.137 149.126 454.802 148.794C454.468 148.463 454.015 148.276 453.542 148.275Z" fill="white"/>
<path d="M453.542 174.087H438.259C437.787 174.089 437.335 174.276 437.002 174.607C436.669 174.939 436.482 175.388 436.482 175.856V190.996C436.481 191.228 436.527 191.458 436.616 191.672C436.705 191.886 436.836 192.081 437.001 192.246C437.166 192.41 437.362 192.54 437.578 192.629C437.794 192.718 438.025 192.764 438.259 192.764H453.542C454.015 192.764 454.469 192.578 454.804 192.246C455.138 191.915 455.326 191.465 455.327 190.996V175.856C455.325 175.387 455.137 174.938 454.802 174.607C454.468 174.275 454.015 174.089 453.542 174.087Z" fill="#FEA55F" fill-opacity="0.5"/>
<path d="M453.542 199.899H438.259C437.787 199.901 437.335 200.088 437.002 200.419C436.669 200.751 436.482 201.2 436.482 201.668V216.808C436.481 217.04 436.527 217.27 436.616 217.484C436.705 217.698 436.836 217.893 437.001 218.058C437.166 218.222 437.362 218.352 437.578 218.441C437.794 218.53 438.025 218.576 438.259 218.576H453.542C454.015 218.576 454.469 218.39 454.804 218.058C455.138 217.727 455.326 217.277 455.327 216.808V201.668C455.325 201.199 455.137 200.75 454.802 200.419C454.468 200.087 454.015 199.901 453.542 199.899Z" fill="#E6E6E6"/>
<path d="M453.542 225.711H438.259C438.025 225.712 437.794 225.758 437.578 225.847C437.362 225.936 437.166 226.066 437.001 226.23C436.836 226.395 436.705 226.589 436.616 226.804C436.527 227.018 436.481 227.248 436.482 227.48V242.62C436.481 242.852 436.527 243.082 436.616 243.296C436.705 243.511 436.836 243.706 437.001 243.87C437.166 244.034 437.362 244.164 437.578 244.253C437.794 244.343 438.025 244.388 438.259 244.389H453.542C454.015 244.388 454.469 244.202 454.804 243.87C455.138 243.539 455.326 243.089 455.327 242.62V227.48C455.326 227.011 455.138 226.561 454.804 226.23C454.469 225.898 454.015 225.712 453.542 225.711Z" fill="white"/>
<path d="M485.631 122.463H470.348C469.876 122.465 469.424 122.652 469.091 122.983C468.758 123.314 468.571 123.763 468.571 124.231V139.378C468.571 139.846 468.758 140.294 469.092 140.624C469.425 140.954 469.877 141.14 470.348 141.14H485.631C486.103 141.14 486.556 140.955 486.891 140.625C487.225 140.294 487.414 139.846 487.416 139.378V124.231C487.414 123.763 487.226 123.314 486.891 122.982C486.557 122.651 486.104 122.464 485.631 122.463Z" fill="#FEA55F" fill-opacity="0.5"/>
<path d="M485.631 148.275H470.348C469.876 148.277 469.424 148.464 469.091 148.795C468.758 149.127 468.571 149.575 468.571 150.043V165.191C468.571 165.658 468.758 166.106 469.092 166.436C469.425 166.766 469.877 166.952 470.348 166.952H485.631C486.103 166.952 486.556 166.767 486.891 166.437C487.225 166.107 487.414 165.658 487.416 165.191V150.043C487.414 149.575 487.226 149.126 486.891 148.794C486.557 148.463 486.104 148.276 485.631 148.275Z" fill="#FEA55F" fill-opacity="0.5"/>
<path d="M485.631 174.087H470.348C469.876 174.089 469.424 174.276 469.091 174.607C468.758 174.939 468.571 175.388 468.571 175.856V190.996C468.57 191.228 468.616 191.458 468.705 191.672C468.794 191.886 468.925 192.081 469.09 192.246C469.255 192.41 469.451 192.54 469.667 192.629C469.883 192.718 470.115 192.764 470.348 192.764H485.631C486.104 192.764 486.558 192.578 486.893 192.246C487.227 191.915 487.415 191.465 487.416 190.996V175.856C487.414 175.387 487.226 174.938 486.891 174.607C486.557 174.275 486.104 174.089 485.631 174.087Z" fill="#E6E6E6"/>
<path d="M485.631 199.899H470.348C469.876 199.901 469.424 200.088 469.091 200.419C468.758 200.751 468.571 201.2 468.571 201.668V216.808C468.57 217.04 468.616 217.27 468.705 217.484C468.794 217.698 468.925 217.893 469.09 218.058C469.255 218.222 469.451 218.352 469.667 218.441C469.883 218.53 470.115 218.576 470.348 218.576H485.631C486.104 218.576 486.558 218.39 486.893 218.058C487.227 217.727 487.415 217.277 487.416 216.808V201.668C487.414 201.199 487.226 200.75 486.891 200.419C486.557 200.087 486.104 199.901 485.631 199.899Z" fill="white"/>
<path d="M485.631 225.711H470.348C470.115 225.712 469.883 225.758 469.667 225.847C469.451 225.936 469.255 226.066 469.09 226.23C468.925 226.395 468.794 226.589 468.705 226.804C468.616 227.018 468.57 227.248 468.571 227.48V242.62C468.57 242.852 468.616 243.082 468.705 243.296C468.794 243.511 468.925 243.706 469.09 243.87C469.255 244.034 469.451 244.164 469.667 244.253C469.883 244.343 470.115 244.388 470.348 244.389H485.631C486.104 244.388 486.558 244.202 486.893 243.87C487.227 243.539 487.415 243.089 487.416 242.62V227.48C487.415 227.011 487.227 226.561 486.893 226.23C486.558 225.898 486.104 225.712 485.631 225.711Z" fill="#FEA55F" fill-opacity="0.5"/>
<path d="M517.72 122.463H502.438C501.966 122.465 501.513 122.652 501.18 122.983C500.847 123.314 500.66 123.763 500.66 124.231V139.378C500.66 139.846 500.848 140.294 501.181 140.624C501.514 140.954 501.966 141.14 502.438 141.14H517.72C518.192 141.14 518.645 140.955 518.98 140.625C519.314 140.294 519.503 139.846 519.505 139.378V124.231C519.503 123.763 519.315 123.314 518.98 122.982C518.646 122.651 518.193 122.464 517.72 122.463Z" fill="#FEA55F" fill-opacity="0.5"/>
<path d="M517.72 148.275H502.438C501.965 148.277 501.513 148.464 501.18 148.795C500.847 149.127 500.66 149.575 500.66 150.043V165.191C500.66 165.658 500.848 166.106 501.181 166.436C501.514 166.766 501.966 166.952 502.438 166.952H517.72C518.192 166.952 518.645 166.767 518.98 166.437C519.314 166.107 519.503 165.658 519.505 165.191V150.043C519.503 149.575 519.315 149.126 518.98 148.794C518.646 148.463 518.193 148.276 517.72 148.275Z" fill="#FEA55F" fill-opacity="0.5"/>
<path d="M517.72 174.087H502.438C501.965 174.089 501.513 174.276 501.18 174.607C500.847 174.939 500.66 175.388 500.66 175.856V190.996C500.66 191.228 500.705 191.458 500.794 191.672C500.883 191.886 501.014 192.081 501.179 192.246C501.344 192.41 501.54 192.54 501.756 192.629C501.972 192.718 502.204 192.764 502.438 192.764H517.72C518.193 192.764 518.647 192.578 518.982 192.246C519.316 191.915 519.504 191.465 519.505 190.996V175.856C519.503 175.387 519.315 174.938 518.981 174.607C518.646 174.275 518.193 174.089 517.72 174.087Z" fill="#E6E6E6"/>
<path d="M517.72 199.899H502.438C501.965 199.901 501.513 200.088 501.18 200.419C500.847 200.751 500.66 201.2 500.66 201.668V216.808C500.66 217.04 500.705 217.27 500.794 217.484C500.883 217.698 501.014 217.893 501.179 218.058C501.344 218.222 501.54 218.352 501.756 218.441C501.972 218.53 502.204 218.576 502.438 218.576H517.72C518.194 218.576 518.647 218.39 518.982 218.058C519.316 217.727 519.504 217.277 519.505 216.808V201.668C519.503 201.199 519.315 200.75 518.98 200.419C518.646 200.087 518.193 199.901 517.72 199.899Z" fill="#FEA55F" fill-opacity="0.5"/>
<path d="M517.72 225.711H502.438C502.204 225.712 501.972 225.758 501.756 225.847C501.54 225.936 501.344 226.066 501.179 226.23C501.014 226.395 500.883 226.589 500.794 226.804C500.705 227.018 500.66 227.248 500.66 227.48V242.62C500.66 242.852 500.705 243.082 500.794 243.296C500.883 243.511 501.014 243.706 501.179 243.87C501.344 244.034 501.54 244.164 501.756 244.253C501.972 244.343 502.204 244.388 502.438 244.389H517.72C518.194 244.388 518.647 244.202 518.982 243.87C519.316 243.539 519.504 243.089 519.505 242.62V227.48C519.504 227.011 519.316 226.561 518.982 226.23C518.647 225.898 518.194 225.712 517.72 225.711Z" fill="#FEA55F" fill-opacity="0.5"/>
<path d="M549.809 122.463H534.527C534.055 122.465 533.602 122.652 533.269 122.983C532.936 123.314 532.749 123.763 532.749 124.231V139.378C532.749 139.846 532.937 140.294 533.27 140.624C533.603 140.954 534.055 141.14 534.527 141.14H549.809C550.282 141.14 550.734 140.955 551.069 140.625C551.403 140.294 551.592 139.846 551.594 139.378V124.231C551.592 123.763 551.404 123.314 551.07 122.982C550.735 122.651 550.282 122.464 549.809 122.463Z" fill="#E6E6E6"/>
<path d="M549.809 148.275H534.527C534.055 148.277 533.602 148.464 533.269 148.795C532.936 149.127 532.749 149.575 532.749 150.043V165.191C532.749 165.658 532.937 166.106 533.27 166.436C533.603 166.766 534.055 166.952 534.527 166.952H549.809C550.282 166.952 550.734 166.767 551.069 166.437C551.403 166.107 551.592 165.658 551.594 165.191V150.043C551.592 149.575 551.404 149.126 551.07 148.794C550.735 148.463 550.282 148.276 549.809 148.275Z" fill="#FEA55F" fill-opacity="0.5"/>
<path d="M549.809 174.087H534.527C534.055 174.089 533.602 174.276 533.269 174.607C532.936 174.939 532.749 175.388 532.749 175.856V190.996C532.749 191.228 532.794 191.458 532.883 191.672C532.972 191.886 533.103 192.081 533.268 192.246C533.433 192.41 533.629 192.54 533.845 192.629C534.061 192.718 534.293 192.764 534.527 192.764H549.809C550.283 192.764 550.736 192.578 551.071 192.246C551.405 191.915 551.593 191.465 551.594 190.996V175.856C551.592 175.387 551.404 174.938 551.07 174.607C550.735 174.275 550.282 174.089 549.809 174.087Z" fill="#FEA55F" fill-opacity="0.5"/>
<path d="M549.809 199.899H534.527C534.055 199.901 533.602 200.088 533.269 200.419C532.936 200.751 532.749 201.2 532.749 201.668V216.808C532.749 217.04 532.794 217.27 532.883 217.484C532.972 217.698 533.103 217.893 533.268 218.058C533.433 218.222 533.629 218.352 533.845 218.441C534.061 218.53 534.293 218.576 534.527 218.576H549.809C550.283 218.576 550.736 218.39 551.071 218.058C551.405 217.727 551.593 217.277 551.594 216.808V201.668C551.592 201.199 551.404 200.75 551.07 200.419C550.735 200.087 550.282 199.901 549.809 199.899Z" fill="#FEA55F" fill-opacity="0.5"/>
<path d="M549.809 225.711H534.527C534.293 225.712 534.061 225.758 533.845 225.847C533.629 225.936 533.433 226.066 533.268 226.23C533.103 226.395 532.972 226.589 532.883 226.804C532.794 227.018 532.749 227.248 532.749 227.48V242.62C532.749 242.852 532.794 243.082 532.883 243.296C532.972 243.511 533.103 243.706 533.268 243.87C533.433 244.034 533.629 244.164 533.845 244.253C534.061 244.343 534.293 244.388 534.527 244.389H549.809C550.283 244.388 550.736 244.202 551.071 243.87C551.405 243.539 551.593 243.089 551.594 242.62V227.48C551.593 227.011 551.405 226.561 551.071 226.23C550.736 225.898 550.283 225.712 549.809 225.711Z" fill="#E6E6E6"/>
<path d="M581.899 122.463H566.616C566.144 122.465 565.692 122.652 565.358 122.983C565.025 123.314 564.838 123.763 564.838 124.231V139.378C564.838 139.846 565.026 140.294 565.359 140.624C565.692 140.954 566.144 141.14 566.616 141.14H581.899C582.371 141.14 582.824 140.955 583.158 140.625C583.493 140.294 583.681 139.846 583.683 139.378V124.231C583.682 123.763 583.493 123.314 583.159 122.982C582.824 122.651 582.371 122.464 581.899 122.463Z" fill="#E6E6E6"/>
<path d="M581.899 148.275H566.616C566.144 148.277 565.692 148.464 565.358 148.795C565.025 149.127 564.838 149.575 564.838 150.043V165.191C564.838 165.658 565.026 166.106 565.359 166.436C565.692 166.766 566.144 166.952 566.616 166.952H581.899C582.371 166.952 582.824 166.767 583.158 166.437C583.493 166.107 583.681 165.658 583.683 165.191V150.043C583.682 149.575 583.493 149.126 583.159 148.794C582.824 148.463 582.371 148.276 581.899 148.275Z" fill="#E6E6E6"/>
<path d="M581.899 174.087H566.616C566.144 174.089 565.692 174.276 565.358 174.607C565.025 174.939 564.838 175.388 564.838 175.856V190.996C564.838 191.228 564.883 191.458 564.972 191.672C565.061 191.886 565.192 192.081 565.357 192.246C565.522 192.41 565.718 192.54 565.934 192.629C566.15 192.718 566.382 192.764 566.616 192.764H581.899C582.372 192.764 582.825 192.578 583.16 192.246C583.495 191.915 583.683 191.465 583.683 190.996V175.856C583.682 175.387 583.493 174.938 583.159 174.607C582.824 174.275 582.371 174.089 581.899 174.087Z" fill="#FEA55F" fill-opacity="0.5"/>
<path d="M581.899 199.899H566.616C566.144 199.901 565.692 200.088 565.358 200.419C565.025 200.751 564.838 201.2 564.838 201.668V216.808C564.838 217.04 564.883 217.27 564.972 217.484C565.061 217.698 565.192 217.893 565.357 218.058C565.522 218.222 565.718 218.352 565.934 218.441C566.15 218.53 566.382 218.576 566.616 218.576H581.899C582.372 218.576 582.825 218.39 583.16 218.058C583.495 217.727 583.683 217.277 583.683 216.808V201.668C583.682 201.199 583.493 200.75 583.159 200.419C582.824 200.087 582.371 199.901 581.899 199.899Z" fill="#E6E6E6"/>
<path d="M581.899 225.711H566.616C566.382 225.712 566.15 225.758 565.934 225.847C565.718 225.936 565.522 226.066 565.357 226.23C565.192 226.395 565.061 226.589 564.972 226.804C564.883 227.018 564.838 227.248 564.838 227.48V242.62C564.838 242.852 564.883 243.082 564.972 243.296C565.061 243.511 565.192 243.706 565.357 243.87C565.522 244.034 565.718 244.164 565.934 244.253C566.15 244.343 566.382 244.388 566.616 244.389H581.899C582.372 244.388 582.825 244.202 583.16 243.87C583.495 243.539 583.683 243.089 583.683 242.62V227.48C583.683 227.011 583.495 226.561 583.16 226.23C582.825 225.898 582.372 225.712 581.899 225.711Z" fill="#E6E6E6"/>
<path d="M230.646 448.942H230.22L230.584 448.894L230.646 448.942Z" fill="#2F2E41"/>
<path d="M194.082 166.677C219.976 166.677 240.968 145.872 240.968 120.207C240.968 94.5424 219.976 73.7371 194.082 73.7371C168.187 73.7371 147.196 94.5424 147.196 120.207C147.196 145.872 168.187 166.677 194.082 166.677Z" fill="#FFB6B6"/>
<path d="M235.141 86.1359C235.141 86.1359 247.404 62.9009 220.425 60.7886C220.425 60.7886 197.426 40.1101 173.983 57.0083C173.983 57.0083 161.196 57.0083 154.203 71.35C154.203 71.35 144.146 67.5696 141.936 77.6868C141.936 77.6868 134.577 98.8095 141.936 117.82C149.295 136.83 151.74 138.943 151.74 138.943C151.74 138.943 139.647 99.0862 169.081 96.9739C198.515 94.8616 231.452 76.6307 233.905 99.8656C236.358 123.1 240.049 128.825 240.049 128.825C240.049 128.825 263.347 95.6411 235.141 86.1359Z" fill="#2F2E41"/>
<path d="M315.365 234.73L315.214 235.519L313.519 244.389L301.805 305.739L301.112 309.351L299.657 316.989L297.667 327.409L293.254 350.501L291.992 357.119L291.518 359.601L291.353 360.472L290.043 367.321L289.645 369.389L286.447 392.875L283.654 413.341L293 422.605L287.428 428.128L283.77 448.893L283.777 448.941H134.497C128.458 445.064 122.506 441.066 116.641 436.949L117.869 427.835C117.869 427.835 122.096 411.559 120.319 409.614C118.549 407.668 114.664 404.193 114.664 404.193L119.557 392.875L120.237 391.304L119.097 367.886L119.07 367.321L118.693 359.601L118.645 358.608L118.569 357.119L117.121 327.409L117.094 326.919L116.655 317.914L116.243 309.351L116.064 305.739L114.301 269.602L113.107 245.062L112.063 223.698L116.256 222.29L161.103 207.184L179.68 183.249L218.343 183.534L237.27 183.677L268.851 212.707L276.036 216.107L276.091 216.135L281.245 218.576L294.311 224.759L308.126 231.302L315.214 234.655L315.365 234.73Z" fill="#CACACA"/>
<path d="M184.676 379.225C181.843 380.313 178.804 380.772 175.772 380.569C172.74 380.367 169.79 379.508 167.13 378.054C164.469 376.599 162.163 374.584 160.373 372.151C158.583 369.717 157.354 366.924 156.771 363.969L83.6445 353.686L109.065 325.186L174.61 339.32C179.684 338.678 184.82 339.904 189.044 342.765C193.267 345.625 196.286 349.922 197.526 354.841C198.767 359.76 198.144 364.959 195.776 369.453C193.408 373.947 189.458 377.424 184.676 379.225Z" fill="#FFB6B6"/>
<path d="M152.072 327.409C150.717 325.707 148.8 324.534 146.658 324.097L116.655 317.914L113.573 317.282C111.783 316.911 110.091 316.17 108.609 315.107C107.127 314.044 105.889 312.683 104.975 311.112C104.026 309.464 103.452 307.63 103.293 305.739C103.15 304.02 103.358 302.29 103.904 300.652L114.301 269.602L121.047 249.456C121.864 247.026 122.347 244.498 122.481 241.94C122.857 234.862 120.647 227.886 116.256 222.29C112.397 217.372 107.043 213.815 100.986 212.144C94.9299 210.474 88.4918 210.778 82.6233 213.013C82.4518 213.074 82.2733 213.142 82.1018 213.21C77.8932 214.876 74.1331 217.488 71.1186 220.842C68.1042 224.196 65.918 228.198 64.7327 232.533L57.4036 258.958L42.2855 313.432C40.7721 318.89 40.4663 324.607 41.3892 330.193C42.312 335.779 44.4416 341.101 47.6323 345.796C50.8229 350.49 54.9992 354.446 59.8754 357.392C64.7516 360.338 70.2125 362.206 75.8843 362.866L119.098 367.886L139.095 370.212C141.407 370.487 143.74 369.889 145.627 368.537C147.514 367.184 148.818 365.176 149.279 362.914C149.311 362.79 149.336 362.666 149.354 362.54L149.835 359.601L153.904 334.857L153.945 334.605C154.157 333.343 154.1 332.05 153.778 330.811C153.455 329.571 152.874 328.413 152.072 327.409Z" fill="#CACACA"/>
<path d="M231.255 380.018C234.214 380.699 237.289 380.729 240.261 380.105C243.234 379.481 246.032 378.218 248.459 376.406C250.886 374.595 252.883 372.277 254.309 369.618C255.734 366.959 256.554 364.022 256.711 361.014L327.643 340.614L298.422 315.951L235.543 339.105C230.428 339.179 225.518 341.11 221.743 344.533C217.969 347.955 215.592 352.631 215.064 357.674C214.535 362.717 215.891 367.777 218.875 371.895C221.86 376.013 226.264 378.904 231.255 380.018Z" fill="#FFB6B6"/>
<path d="M362.861 294.979L329.125 218.026C326.365 211.708 321.437 206.563 315.214 203.504C313.291 202.566 311.271 201.836 309.189 201.328C308.867 201.246 308.544 201.171 308.222 201.11C303.807 200.155 299.229 200.239 294.853 201.355C290.854 202.373 287.116 204.216 283.883 206.763C280.65 209.309 277.995 212.503 276.091 216.135C276.07 216.165 276.052 216.197 276.036 216.23C273.91 220.307 272.779 224.823 272.735 229.412C272.691 234.002 273.735 238.538 275.782 242.654L276.201 243.484L300.041 290.939C300.856 292.562 301.314 294.337 301.387 296.148C301.461 297.958 301.147 299.764 300.466 301.446C299.786 303.128 298.754 304.649 297.439 305.908C296.124 307.167 294.555 308.137 292.836 308.752L291.161 309.351L261.049 320.132C258.789 320.931 256.93 322.568 255.864 324.698C254.798 326.828 254.607 329.285 255.332 331.552L255.408 331.79L263.849 358.561C263.89 358.683 263.931 358.806 263.979 358.928C264.053 359.159 264.145 359.384 264.253 359.601C265.15 361.595 266.736 363.207 268.725 364.146C270.714 365.085 272.975 365.289 275.103 364.723L291.353 360.472L294.668 359.601L336.632 348.617C342.154 347.171 347.295 344.559 351.704 340.961C356.112 337.362 359.684 332.862 362.175 327.768C364.666 322.674 366.017 317.107 366.135 311.448C366.254 305.789 365.137 300.171 362.861 294.979Z" fill="#CACACA"/>
<path d="M30.8115 359.601C40.536 371.357 51.0236 382.472 62.2075 392.875H372.373C375.361 392.88 378.225 394.059 380.338 396.154C382.45 398.248 383.638 401.088 383.641 404.05L384.087 481.949C403.168 473.26 421.037 462.166 437.251 448.941C441.753 445.275 446.115 441.45 450.338 437.466C453.103 434.868 455.802 432.206 458.435 429.481C478.175 409.1 494.159 385.449 505.663 359.601H30.8115Z" fill="#3F3D56"/>
<path d="M458.435 429.481C455.807 432.209 453.108 434.87 450.338 437.466H384.313V429.481H458.435Z" fill="white"/>
<path d="M314.748 174.087C314.422 173.49 313.939 172.992 313.351 172.645C312.763 172.298 312.091 172.115 311.406 172.115H86.4254C85.4167 172.117 84.4502 172.516 83.7376 173.224C83.025 173.931 82.6244 174.89 82.6235 175.89V309.351H315.215V175.89C315.218 175.259 315.058 174.638 314.748 174.087Z" fill="#3F3D56"/>
<path d="M82.4194 305.738V322.207C82.4194 322.89 82.5551 323.566 82.8187 324.197C83.0823 324.827 83.4687 325.401 83.9558 325.883C84.4429 326.366 85.0212 326.749 85.6576 327.01C86.294 327.272 86.9762 327.406 87.665 327.406H173.513V359.909H172.372C172.283 359.909 172.194 359.926 172.112 359.96C172.029 359.994 171.954 360.044 171.891 360.107C171.827 360.169 171.777 360.244 171.743 360.326C171.709 360.408 171.691 360.495 171.691 360.584V362.845C171.691 362.934 171.709 363.021 171.743 363.103C171.777 363.185 171.827 363.26 171.891 363.322C171.954 363.385 172.029 363.435 172.112 363.469C172.194 363.503 172.283 363.52 172.372 363.52H225.666C225.755 363.52 225.844 363.503 225.926 363.469C226.009 363.435 226.084 363.385 226.147 363.322C226.211 363.26 226.261 363.185 226.295 363.103C226.329 363.021 226.347 362.934 226.347 362.845V360.584C226.347 360.495 226.329 360.408 226.295 360.326C226.261 360.244 226.211 360.169 226.147 360.107C226.084 360.044 226.009 359.994 225.926 359.96C225.844 359.926 225.755 359.909 225.666 359.909H224.525V327.406H310.373C311.062 327.406 311.744 327.272 312.38 327.01C313.017 326.749 313.595 326.366 314.082 325.883C314.569 325.401 314.956 324.827 315.219 324.197C315.483 323.566 315.619 322.89 315.619 322.207V305.738H82.4194Z" fill="#3F3D56"/>
<path d="M196.201 258.468C208.067 258.468 217.685 248.935 217.685 237.175C217.685 225.415 208.067 215.882 196.201 215.882C184.336 215.882 174.717 225.415 174.717 237.175C174.717 248.935 184.336 258.468 196.201 258.468Z" fill="#FEA55F" fill-opacity="0.5"/>
<path d="M250.94 117.668H247.509C247.509 91.9576 221.836 75.11 195.937 75.0964C192.17 75.0855 188.412 75.4478 184.717 76.1779C180.558 77.0008 176.242 77.9871 172.001 79.2726C155.277 84.3534 139.768 94.1749 139.768 117.668C139.764 122.23 140.35 126.774 141.511 131.189L138.189 132.046C136.957 127.351 136.335 122.519 136.336 117.668C136.336 97.1404 144.839 83.0407 159.525 74.6339C167.245 70.2128 176.667 67.363 187.462 65.9754C191.954 65.3831 196.496 65.2464 201.016 65.5673C230.799 67.6894 250.94 90.3252 250.94 117.668Z" fill="#FEA55F" fill-opacity="0.5"/>
<path d="M256.657 119.552L255.305 109.649C254.971 107.148 253.756 104.844 251.873 103.146C250.665 102.039 249.218 101.219 247.643 100.748C246.068 100.277 244.405 100.166 242.781 100.426L240.633 100.718C240.045 100.795 239.478 100.986 238.966 101.282C238.453 101.577 238.005 101.971 237.647 102.439C237.286 102.906 237.022 103.439 236.871 104.007C236.719 104.576 236.682 105.169 236.762 105.751L239.885 128.564C240.013 129.494 240.434 130.36 241.086 131.04C241.739 131.72 242.591 132.179 243.522 132.353C243.797 132.407 244.078 132.435 244.359 132.434C244.561 132.434 244.763 132.42 244.963 132.393L247.365 132.074C248.829 131.881 250.238 131.394 251.506 130.642C252.773 129.89 253.872 128.889 254.735 127.7C254.92 127.442 255.099 127.176 255.263 126.904C256.55 124.679 257.041 122.088 256.657 119.552Z" fill="#FEA55F" fill-opacity="0.5"/>
<path d="M239.246 101.133C238.616 101.436 238.068 101.884 237.647 102.439C237.286 102.906 237.022 103.439 236.871 104.007C236.719 104.576 236.682 105.169 236.762 105.751L239.885 128.564C240.013 129.494 240.434 130.36 241.086 131.04C241.739 131.72 242.591 132.179 243.522 132.352L239.246 101.133Z" fill="white"/>
<path d="M256.657 119.552L255.305 109.649C254.971 107.148 253.756 104.844 251.874 103.146L254.982 125.843C255.029 126.208 255.123 126.564 255.264 126.904C256.55 124.679 257.041 122.088 256.657 119.552Z" fill="#3F3D56"/>
<path d="M245.972 126.687C246.911 126.561 247.383 124.346 247.026 121.741C246.67 119.135 245.619 117.125 244.681 117.251C243.742 117.378 243.27 119.592 243.626 122.198C243.983 124.804 245.033 126.813 245.972 126.687Z" fill="#3F3D56"/>
<path d="M243.913 114.444C244.852 114.318 245.324 112.103 244.967 109.498C244.611 106.892 243.561 104.882 242.622 105.008C241.683 105.135 241.211 107.349 241.567 109.955C241.924 112.561 242.974 114.571 243.913 114.444Z" fill="#3F3D56"/>
<path d="M256.952 119.205C257.891 119.079 258.363 116.864 258.006 114.259C257.65 111.653 256.599 109.643 255.661 109.769C254.722 109.896 254.25 112.11 254.606 114.716C254.963 117.322 256.013 119.332 256.952 119.205Z" fill="#3F3D56"/>
<path d="M195.937 75.0964C192.17 75.0855 188.411 75.4478 184.717 76.1779C180.558 77.0008 176.241 77.9871 172 79.2726C165.378 78.9529 160.506 77.2525 159.524 74.6339C167.245 70.2128 176.667 67.363 187.462 65.9754C191.954 65.3831 196.495 65.2464 201.015 65.5673C201.494 65.8453 201.907 66.2206 202.229 66.6684C202.551 67.1162 202.773 67.6264 202.882 68.1655C203.204 70.5325 200.48 73.0491 195.937 75.0964Z" fill="#3F3D56"/>
<path d="M152.127 141.269L146.843 119.497C146.654 118.712 146.236 117.999 145.64 117.448C145.044 116.898 144.297 116.534 143.494 116.403C143.267 116.368 143.037 116.349 142.807 116.348C142.484 116.349 142.161 116.388 141.847 116.464L139.802 116.953C137.169 117.585 134.896 119.225 133.482 121.515C132.068 123.806 131.628 126.558 132.26 129.169L134.627 138.936C135.168 141.236 136.455 143.296 138.292 144.799C138.589 145.037 138.901 145.258 139.225 145.459C140.375 146.174 141.659 146.653 142.999 146.867C144.339 147.082 145.709 147.029 147.028 146.711L149.066 146.221C149.605 146.096 150.112 145.862 150.555 145.534C151.214 145.058 151.716 144.398 151.995 143.639C152.275 142.879 152.321 142.054 152.127 141.269Z" fill="#FEA55F" fill-opacity="0.5"/>
<path d="M141.049 137.218C141.97 136.999 142.214 134.748 141.593 132.191C140.973 129.635 139.723 127.741 138.801 127.96C137.88 128.18 137.636 130.431 138.257 132.987C138.878 135.544 140.128 137.438 141.049 137.218Z" fill="#3F3D56"/>
<path d="M134.187 139.259C135.108 139.039 135.352 136.789 134.731 134.232C134.11 131.675 132.86 129.781 131.939 130.001C131.018 130.221 130.774 132.471 131.395 135.028C132.016 137.584 133.266 139.479 134.187 139.259Z" fill="#3F3D56"/>
<path d="M152.463 141.188L147.179 119.416C146.973 118.566 146.519 117.795 145.873 117.2C145.228 116.605 144.419 116.211 143.549 116.069L150.761 145.806C151.474 145.289 152.015 144.574 152.318 143.752C152.621 142.931 152.672 142.038 152.463 141.188Z" fill="white"/>
<path d="M133.454 124.857C133.308 124.252 133.034 123.684 132.651 123.191C131.908 125.097 131.772 127.184 132.26 129.169L134.627 138.936C135.168 141.236 136.455 143.296 138.292 144.799L133.454 124.857Z" fill="#3F3D56"/>
</g>
<defs>
<clipPath id="clip0_3081_1140">
<rect width="584" height="504" fill="white"/>
</clipPath>
</defs>
</svg>
