<svg width="200" height="225" viewBox="0 0 200 225" fill="none" xmlns="http://www.w3.org/2000/svg">
<g clip-path="url(#clip0_3174_1257)">
<g clip-path="url(#clip1_3174_1257)">
<path d="M100 26.3626C145.261 26.3626 182.464 61.4338 186.019 105.746H200C199.289 94.6088 196.683 83.9451 192.417 73.7557C187.441 61.9076 180.094 51.007 170.853 42.0026C161.611 32.7607 150.948 25.652 139.099 20.4382C126.54 15.2251 113.507 12.3813 100 12.3813C86.4931 12.3813 73.46 14.9882 60.9006 20.2013C49.0525 25.1776 38.1519 32.5238 29.1469 41.7657C19.905 51.0076 12.7962 61.6707 7.58313 73.5188C3.3175 83.7082 0.71125 94.6089 0 105.509H13.9813C17.5356 61.4338 54.7394 26.3626 100 26.3626ZM100 198.874C54.7394 198.874 17.5356 163.803 13.9813 119.491H0C0.710625 130.628 3.3175 141.292 7.58313 151.481C12.5594 163.329 19.9056 174.23 29.1469 183.234C38.3887 192.476 49.0519 199.585 60.9006 204.799C73.2231 210.012 86.2563 212.619 100 212.619C113.744 212.619 126.54 210.012 139.099 204.799C150.948 199.823 161.848 192.476 170.853 183.234C180.095 173.993 187.204 163.329 192.417 151.481C196.683 141.292 199.289 130.391 200 119.491H186.019C182.464 163.803 145.261 198.874 100 198.874Z" fill="#43D9AD"/>
<g clip-path="url(#clip2_3174_1257)">
<g clip-path="url(#clip3_3174_1257)">
<g clip-path="url(#clip4_3174_1257)">
<g clip-path="url(#clip5_3174_1257)">
<g clip-path="url(#clip6_3174_1257)">
<g clip-path="url(#clip7_3174_1257)">
<path d="M57.4726 63.3589C69.3253 63.3589 78.3618 65.9854 84.5821 71.2385C90.7834 76.5106 93.884 84.267 93.884 94.5077C93.884 105.412 90.8308 113.567 84.7243 118.972C78.5988 124.376 69.9416 127.079 58.7527 127.079H53.0635V161.641H35V63.3589H57.4726ZM57.7571 113.567C63.9205 113.567 68.3771 112.144 71.1269 109.3C73.8767 106.455 75.2516 101.572 75.2516 94.6499C75.2516 88.3917 73.8767 83.8403 71.1269 80.9956C68.3771 78.151 63.9679 76.7287 57.8993 76.7287H53.0635V113.567H57.7571ZM144.519 109.584C150.872 111.007 155.869 113.538 159.51 117.179C163.17 120.84 165 126.273 165 133.479C165 142.961 161.795 150.026 155.385 154.672C148.994 159.318 140.299 161.641 129.3 161.641H104.551V63.3589H126.028C137.312 63.3589 146.036 65.4924 152.199 69.7593C158.363 74.0263 161.444 80.2371 161.444 88.3917C161.444 93.8913 159.899 98.4428 156.807 102.046C153.735 105.649 149.639 108.162 144.519 109.584ZM127.877 76.7287H122.615V103.895H128.731C138.308 103.895 143.096 99.2487 143.096 89.9563C143.096 85.31 141.883 81.9439 139.455 79.8578C137.047 77.7717 133.187 76.7287 127.877 76.7287ZM129.442 147.987C134.942 147.987 139.114 146.821 141.958 144.488C144.803 142.174 146.225 138.268 146.225 132.768C146.225 127.268 144.898 123.21 142.243 120.593C139.588 117.995 135.463 116.696 129.869 116.696H122.615V147.987H129.442Z" fill="#43D9AD"/>
</g>
</g>
</g>
</g>
</g>
</g>
</g>
</g>
<defs>
<clipPath id="clip0_3174_1257">
<rect width="200" height="225" fill="white"/>
</clipPath>
<clipPath id="clip1_3174_1257">
<rect width="200" height="225" fill="white"/>
</clipPath>
<clipPath id="clip2_3174_1257">
<rect width="130" height="98.2823" fill="white" transform="translate(35 63.3589)"/>
</clipPath>
<clipPath id="clip3_3174_1257">
<rect width="130" height="98.2823" fill="white" transform="translate(35 63.3589)"/>
</clipPath>
<clipPath id="clip4_3174_1257">
<rect width="130" height="98.2823" fill="white" transform="translate(35 63.3589)"/>
</clipPath>
<clipPath id="clip5_3174_1257">
<rect width="130" height="98.2823" fill="white" transform="translate(35 63.3589)"/>
</clipPath>
<clipPath id="clip6_3174_1257">
<rect width="130" height="98.2823" fill="white" transform="translate(35 63.3589)"/>
</clipPath>
<clipPath id="clip7_3174_1257">
<rect width="130" height="98.2823" fill="white" transform="translate(35 63.3589)"/>
</clipPath>
</defs>
</svg>
